<?xml version="1.0" encoding="UTF-8"?>
<svg version="1.1" xmlns="http://www.w3.org/2000/svg" width="549" height="500">
<path d="M0 0 C1.08023437 0.39960937 2.16046875 0.79921875 3.2734375 1.2109375 C17.17491701 6.64747411 32.58084668 15.27979389 44 25 C44 25.66 44 26.32 44 27 C44.55171875 27.2371875 45.1034375 27.474375 45.671875 27.71875 C48.56774711 29.31245143 50.79512037 31.28917273 53.25 33.5 C54.14203125 34.2940625 55.0340625 35.088125 55.953125 35.90625 C58 38 58 38 58 40 C58.763125 40.226875 59.52625 40.45375 60.3125 40.6875 C63.63307067 42.30917405 64.17327062 43.83975818 66 47 C67.20422382 48.54065886 68.43490183 50.06090666 69.6875 51.5625 C80.81834864 65.33870572 89.50603505 80.56394713 96 97 C96.81984375 98.78277344 96.81984375 98.78277344 97.65625 100.6015625 C99.75521997 106.23987912 99.31998765 112.06862979 99.1875 118 C99.17396484 119.15628906 99.16042969 120.31257812 99.14648438 121.50390625 C99.11137044 124.33643004 99.06219 127.16796307 99 130 C95.6875 130.6875 95.6875 130.6875 92 131 C89.42391513 129.05999492 88.49281445 127.16197083 87.60546875 124.11328125 C87.37545166 123.34773926 87.14543457 122.58219727 86.90844727 121.79345703 C86.67053467 120.97474121 86.43262207 120.15602539 86.1875 119.3125 C85.66195412 117.58629276 85.1332534 115.86104317 84.6015625 114.13671875 C84.33504883 113.27224121 84.06853516 112.40776367 83.79394531 111.51708984 C79.19004255 96.92107585 72.79159789 83.91354145 64.28515625 71.14453125 C63 69 63 69 63 67 C62.34 67 61.68 67 61 67 C61 66.34 61 65.68 61 65 C54.82463285 65.0194182 48.65069113 65.07113043 42.47583008 65.15258789 C40.37597422 65.17576296 38.2760022 65.19016244 36.17602539 65.19555664 C33.15437475 65.20484963 30.13454983 65.24584846 27.11328125 65.29296875 C25.70832146 65.28706978 25.70832146 65.28706978 24.27497864 65.28105164 C19.64610792 65.38431308 17.66986099 65.4471757 13.99291992 68.48168945 C13.00642456 69.72825317 13.00642456 69.72825317 12 71 C8.51302098 72.74348951 4.80409937 72.58082725 1 72 C-2.57623788 70.0862694 -4.69762236 67.90713292 -6 64 C-6.45578639 59.36617169 -6.75013484 56.37301687 -3.8125 52.625 C0.4516129 48.64516129 0.4516129 48.64516129 4 48 C7.15338762 48.28306891 10.06774306 48.79352577 13 50 C13.81537231 51.00571045 13.81537231 51.00571045 14.6472168 52.03173828 C17.90015715 54.75304212 20.78395662 54.50609542 24.828125 54.390625 C25.57713074 54.38496521 26.32613647 54.37930542 27.09783936 54.37347412 C29.482552 54.35114057 31.86574408 54.30095386 34.25 54.25 C35.86976991 54.22993091 37.48956346 54.21168085 39.109375 54.1953125 C43.07349966 54.15128624 47.03649232 54.08228298 51 54 C49.23519919 52.1812664 47.46369235 50.37005009 45.6875 48.5625 C45.18798828 48.04623047 44.68847656 47.52996094 44.17382812 46.99804688 C40.52094868 43.29678492 38.60950046 42.0428258 33.32983398 41.90234375 C31.80189135 41.90927391 30.27396659 41.92133525 28.74609375 41.9375 C27.93060562 41.94128662 27.11511749 41.94507324 26.2749176 41.94897461 C22.79153212 41.96526444 19.30826479 41.99316473 15.82495117 42.02050781 C-11.06237817 42.21352161 -11.06237817 42.21352161 -17 37 C-21.02565489 32.18671698 -20.55372335 26.66158312 -20.6875 20.6875 C-20.72166016 19.66076172 -20.75582031 18.63402344 -20.79101562 17.57617188 C-20.87322536 15.05115859 -20.93829627 12.52559759 -21 10 C-23.97 9.01 -26.94 8.02 -30 7 C-29.98054137 12.30266642 -29.92870874 17.6036821 -29.84741211 22.90576172 C-29.82427646 24.70775346 -29.80984681 26.50987957 -29.80444336 28.31201172 C-29.79512096 30.90937603 -29.75406208 33.50464001 -29.70703125 36.1015625 C-29.71293022 37.30191635 -29.71293022 37.30191635 -29.71894836 38.52651978 C-29.56653756 44.42596248 -28.03270611 46.74249447 -24 51 C-22.76863006 55.23283416 -22.85868798 57.50125168 -24.0625 61.75 C-26.41219194 65.69141874 -27.60047185 66.72013726 -32 68 C-36.28215948 68.34312175 -40.24550209 68.35592601 -43.75390625 65.64453125 C-46.56514076 62.14450424 -47.88141843 58.57393201 -47.54226685 54.07228088 C-46.88057803 51.54362717 -45.88079456 50.63185477 -44.00732422 48.83959961 C-40.23689144 44.61973864 -40.13575446 41.06002535 -40.1953125 35.56640625 C-40.18160614 34.68846909 -40.16789978 33.81053192 -40.15377808 32.9059906 C-40.1166304 30.12429851 -40.12018243 27.34440389 -40.125 24.5625 C-40.10686247 22.66728999 -40.08605647 20.77210353 -40.0625 18.87695312 C-40.01079205 14.25100293 -39.99555933 9.62622323 -40 5 C-41.093125 5.020625 -42.18625 5.04125 -43.3125 5.0625 C-47 5 -47 5 -50 4 C-50 15.22 -50 26.44 -50 38 C-50.99 38.33 -51.98 38.66 -53 39 C-53.33 39.66 -53.66 40.32 -54 41 C-54.33 41.66 -54.66 42.32 -55 43 C-55.99 43.33 -56.98 43.66 -58 44 C-58.67990001 45.32663416 -59.34517589 46.66081084 -60 48 C-61.18403047 49.02865995 -62.39433112 50.02761965 -63.625 51 C-67.00442355 54.24537544 -67.55818369 56.5946127 -67.6875 61.25 C-67.7481085 64.28673075 -67.7481085 64.28673075 -67 67 C-65.10166961 68.75084583 -65.10166961 68.75084583 -63 70 C-60.78477021 73.98741362 -60.52561102 77.49330471 -61 82 C-62.75494081 85.10039543 -64.48825667 87.48825667 -67 90 C-71.36133949 90.67700531 -76.02830107 91.02391315 -80.0234375 88.94921875 C-82.78774432 86.66360896 -84.76900113 84.64999189 -85.2734375 81.046875 C-85.46398281 76.73761949 -85.41441132 73.87503925 -82.625 70.4375 C-80 68 -80 68 -78 68 C-77.99742187 66.9378125 -77.99484375 65.875625 -77.9921875 64.78125 C-77.71053529 51.15893949 -77.71053529 51.15893949 -72.47265625 45.1875 C-71 44 -71 44 -69 44 C-68.67 43.01 -68.34 42.02 -68 41 C-66.37550757 39.29220027 -64.70779973 37.62449243 -63 36 C-60.17120714 33.17120714 -60.6857334 31.20075802 -60.5859375 27.2421875 C-60.56657135 26.57913605 -60.5472052 25.91608459 -60.5272522 25.23294067 C-60.46744046 23.11375823 -60.42106612 20.9945215 -60.375 18.875 C-60.33682155 17.43877831 -60.29776989 16.00257955 -60.2578125 14.56640625 C-60.16173875 11.04448064 -60.07771358 7.52238392 -60 4 C-63.3 4 -66.6 4 -70 4 C-69.97679687 5.34835938 -69.95359375 6.69671875 -69.9296875 8.0859375 C-69.91093202 9.84895281 -69.89273158 11.61197409 -69.875 13.375 C-69.85824219 14.26445313 -69.84148437 15.15390625 -69.82421875 16.0703125 C-69.81777344 16.92109375 -69.81132812 17.771875 -69.8046875 18.6484375 C-69.79421387 19.43395996 -69.78374023 20.21948242 -69.77294922 21.02880859 C-70 23 -70 23 -72 25 C-78.57692308 24.42307692 -78.57692308 24.42307692 -80 23 C-80.08631874 21.65732587 -80.10706473 20.31025678 -80.09765625 18.96484375 C-80.09443359 18.15595703 -80.09121094 17.34707031 -80.08789062 16.51367188 C-80.07951172 15.66353516 -80.07113281 14.81339844 -80.0625 13.9375 C-80.05798828 13.08349609 -80.05347656 12.22949219 -80.04882812 11.34960938 C-80.03700373 9.23304337 -80.01906769 7.11651315 -80 5 C-83.63 5.66 -87.26 6.32 -91 7 C-91 14.26 -91 21.52 -91 29 C-89.68 29.66 -88.36 30.32 -87 31 C-84.1711702 35.2432447 -84.34731999 39.01734529 -85 44 C-87.04313673 47.50252011 -89.09787233 49.77361702 -93 51 C-97.32135899 51.480151 -99.4668367 51.29173086 -103.3125 49.1875 C-106.15189903 46.87636126 -107.84901046 45.35002411 -108.265625 41.625 C-108.26046875 40.75875 -108.2553125 39.8925 -108.25 39 C-108.25773437 37.700625 -108.25773437 37.700625 -108.265625 36.375 C-108 34 -108 34 -106 31 C-105.34 31 -104.68 31 -104 31 C-103.67 29.68 -103.34 28.36 -103 27 C-102.34 27 -101.68 27 -101 27 C-101 21.06 -101 15.12 -101 9 C-105.51860953 10.64201269 -105.51860953 10.64201269 -110.03466797 12.29101562 C-114.77777778 14 -114.77777778 14 -117 14 C-117 31.16 -117 48.32 -117 66 C-115.35 66.66 -113.7 67.32 -112 68 C-109.81491792 71.71463954 -109 74.24696246 -109 78.5625 C-110.26629064 82.91537408 -111.80518897 84.80518897 -115 88 C-118.61930698 89.20643566 -121.19231005 89.32268559 -125 89 C-129.01846207 86.87703891 -131.32923105 85.21926904 -133 81 C-133.265625 78.78125 -133.265625 78.78125 -133.25 76.5 C-133.25773437 75.37078125 -133.25773437 75.37078125 -133.265625 74.21875 C-132.96429023 71.70171836 -132.35769582 70.13610808 -131 68 C-130.01 67.34 -129.02 66.68 -128 66 C-127.56314184 63.94581105 -127.56314184 63.94581105 -127.65942383 61.55029297 C-127.65976372 60.16908768 -127.65976372 60.16908768 -127.66011047 58.75997925 C-127.67559433 57.76410797 -127.69107819 56.76823669 -127.70703125 55.7421875 C-127.71127609 54.72399933 -127.71552094 53.70581116 -127.71989441 52.6567688 C-127.73672421 49.39591327 -127.77438454 46.13566959 -127.8125 42.875 C-127.82754126 40.66797766 -127.84123063 38.46094566 -127.85351562 36.25390625 C-127.8866417 30.83572777 -127.93688347 25.41790758 -128 20 C-130.24638145 21.10624685 -132.49084795 22.21611594 -134.734375 23.328125 C-135.36649902 23.6389502 -135.99862305 23.94977539 -136.64990234 24.27001953 C-142.30296734 27.07812613 -147.43262231 29.64893347 -151 35 C-153.375 36.0625 -153.375 36.0625 -156 37 C-158.21771064 37.85790183 -158.21771064 37.85790183 -160 39 C-160.33 39.99 -160.66 40.98 -161 42 C-161.66 42 -162.32 42 -163 42 C-163.268125 42.639375 -163.53625 43.27875 -163.8125 43.9375 C-165 46 -165 46 -168 47 C-168.33 47.99 -168.66 48.98 -169 50 C-169.99 50.495 -169.99 50.495 -171 51 C-164.11563318 51.78061963 -164.11563318 51.78061963 -157.734375 49.6640625 C-156.42775583 48.5683543 -155.12803977 47.46435262 -153.8359375 46.3515625 C-152 45 -152 45 -148.375 44.375 C-144.3742341 45.11588257 -142.14206376 46.44250624 -139 49 C-136.03482503 53.44776246 -136.23760509 57.78521883 -137 63 C-139.52570633 66.41311667 -140.99913304 67.66637768 -145 69 C-149.31160829 69.4067555 -151.52007671 69.25773658 -155.375 67.1875 C-158 65 -158 65 -159 62 C-166.92 62.33 -174.84 62.66 -183 63 C-184.26436876 66.1609219 -185.28100082 68.76450369 -186 72 C-186.99 72 -187.98 72 -189 72 C-189.12375 72.804375 -189.2475 73.60875 -189.375 74.4375 C-189.58125 75.283125 -189.7875 76.12875 -190 77 C-190.99 77.495 -190.99 77.495 -192 78 C-195.20491619 83.00619464 -195.39598104 86.99453408 -195.21484375 92.72265625 C-195.19788956 93.5457579 -195.18093536 94.36885956 -195.16346741 95.21690369 C-195.12312065 96.94924717 -195.07475011 98.68142036 -195.01879883 100.41333008 C-194.93765223 103.05753946 -194.89405085 105.70059553 -194.85351562 108.34570312 C-194.80955611 110.03391465 -194.7634062 111.72207086 -194.71484375 113.41015625 C-194.70420395 114.19673111 -194.69356415 114.98330597 -194.68260193 115.79371643 C-194.48354484 120.81078011 -193.57527266 123.23861124 -190 127 C-189.2897218 129.75755067 -189.42637489 132.21623106 -190 135 C-191.79363911 137.8100346 -193.01880935 139.50940468 -196 141 C-200.06384417 141.39075425 -202.5988911 141.17084268 -206.375 139.5625 C-209.59334209 136.4207851 -209.83047916 134.56250355 -210.1875 130.21875 C-209.97340165 127.68525288 -209.35298422 126.14222501 -208 124 C-207.34 123.67 -206.68 123.34 -206 123 C-206 118.05 -206 113.1 -206 108 C-212.21179596 124.86058902 -215.18736427 142.49344371 -215.18530273 160.4309082 C-215.18746952 162.53292716 -215.20561087 164.63440303 -215.22460938 166.73632812 C-215.27524269 178.67008251 -213.91553686 190.2055669 -211.0625 201.8125 C-210.90587891 202.48474609 -210.74925781 203.15699219 -210.58789062 203.84960938 C-209.35234081 209.00347652 -207.73804837 213.99520576 -206 219 C-205.89177208 215.93654856 -205.81258521 212.8769399 -205.75 209.8125 C-205.71648437 208.94818359 -205.68296875 208.08386719 -205.6484375 207.19335938 C-205.56414092 201.69300736 -206.04559165 199.11503229 -210 195 C-210.73821385 190.48869313 -210.33999613 188.57374347 -208 184.625 C-204.75635384 181.78680961 -203.11813986 181.04940173 -198.9296875 180.828125 C-195.95329712 181.0932286 -194.25252853 182.07872566 -192 184 C-189.43429411 187.42094119 -189.56291946 190.84773484 -190 195 C-190.98190308 196.04571167 -190.98190308 196.04571167 -191.98364258 197.11254883 C-194.87752131 201.25662242 -194.6295372 204.81495115 -194.63671875 209.76171875 C-194.64766068 210.70755325 -194.6586026 211.65338776 -194.6698761 212.62788391 C-194.68571869 214.62743698 -194.69094414 216.62709859 -194.6862793 218.62670898 C-194.68748952 221.66121773 -194.7471636 224.69084415 -194.81054688 227.72460938 C-195.25156709 240.98935393 -195.25156709 240.98935393 -189.59643555 252.48266602 C-183.6712741 255.945278 -176.7062617 255.28788204 -170.0625 255.125 C-168.50455633 255.12305601 -166.94660014 255.12561728 -165.38867188 255.1328125 C-161.5903172 255.14060315 -157.79731694 255.08704634 -154 255 C-154 254.34 -154 253.68 -154 253 C-151.42726346 250.21286874 -149.89603326 249.99009841 -146.0625 249.625 C-142.24592538 249.8243733 -139.75950421 250.15687445 -137 253 C-135.91326221 257.51414158 -135.52428893 261.5728668 -137 266 C-139.89043424 268.29534484 -141.81701571 268.97712696 -145.5 269.4375 C-149 269 -149 269 -151.34643555 266.99707031 C-154.52635557 264.60386525 -156.03090996 264.52883918 -159.95703125 264.609375 C-161.06884766 264.62226563 -162.18066406 264.63515625 -163.32617188 264.6484375 C-164.47666016 264.68195313 -165.62714844 264.71546875 -166.8125 264.75 C-167.98232422 264.76804687 -169.15214844 264.78609375 -170.35742188 264.8046875 C-173.2391178 264.8517356 -176.11913797 264.91746291 -179 265 C-178.02546875 266.04800781 -178.02546875 266.04800781 -177.03125 267.1171875 C-176.1959375 268.02726562 -175.360625 268.93734375 -174.5 269.875 C-173.24703125 271.23238281 -173.24703125 271.23238281 -171.96875 272.6171875 C-170 275 -170 275 -170 277 C-165.42866179 277.17401145 -160.85927952 277.3005046 -156.28540039 277.38452148 C-154.73232417 277.41956542 -153.17947629 277.46721857 -151.62719727 277.52807617 C-142.69358832 278.12872526 -142.69358832 278.12872526 -134.41455078 275.48095703 C-132.06467244 273.16470843 -130.46978798 270.93957597 -129 268 C-128.34 268 -127.68 268 -127 268 C-126.86463371 265.58145554 -126.76579721 263.17050217 -126.6875 260.75 C-126.64560547 260.06808594 -126.60371094 259.38617188 -126.56054688 258.68359375 C-126.45252862 256.387149 -126.45252862 256.387149 -127 253 C-129.34377144 250.59906293 -129.34377144 250.59906293 -132 249 C-133.72589785 245.54820431 -133.36043965 241.78133961 -133 238 C-131.27158115 233.81540699 -129.15177657 231.79281261 -125 230 C-120.77669003 229.46248782 -118.57250446 229.71374777 -114.75 231.625 C-111.62051712 234.32773522 -110.28514514 236.0689678 -109 240 C-108.69513444 244.70232032 -109.44046093 247.31133653 -112.4375 251 C-115 253 -115 253 -117 253 C-116.91878906 254.134375 -116.83757812 255.26875 -116.75390625 256.4375 C-116.06090141 270.14106281 -116.06090141 270.14106281 -120 274.5625 C-121.30661003 275.73871514 -122.64173799 276.88382971 -124 278 C-125.44674704 279.47012356 -126.884352 280.9493019 -128.3125 282.4375 C-131.96748418 286.10684561 -133.81911038 287.10766536 -139.0078125 287.31640625 C-139.99394531 287.35830078 -140.98007813 287.40019531 -141.99609375 287.44335938 C-143.02863281 287.48267578 -144.06117188 287.52199219 -145.125 287.5625 C-146.16527344 287.60568359 -147.20554687 287.64886719 -148.27734375 287.69335938 C-150.85142528 287.7996288 -153.42560508 287.90166583 -156 288 C-155.19030762 288.60618164 -155.19030762 288.60618164 -154.36425781 289.22460938 C-153.65108398 289.75892578 -152.93791016 290.29324219 -152.203125 290.84375 C-151.49833008 291.37162109 -150.79353516 291.89949219 -150.06738281 292.44335938 C-148.77951847 293.41305978 -147.49571095 294.38820168 -146.21826172 295.37158203 C-141.77664353 298.7851436 -136.90421382 301.14992323 -131.8671875 303.5703125 C-129.15234762 304.92403375 -126.57824968 306.40394067 -124 308 C-124.01160156 307.21753906 -124.02320313 306.43507813 -124.03515625 305.62890625 C-124.04417969 304.61699219 -124.05320313 303.60507812 -124.0625 302.5625 C-124.07410156 301.55316406 -124.08570313 300.54382813 -124.09765625 299.50390625 C-124 297 -124 297 -123 296 C-121.1875 295.8671875 -121.1875 295.8671875 -119 295.875 C-118.278125 295.87242187 -117.55625 295.86984375 -116.8125 295.8671875 C-115 296 -115 296 -114 297 C-113.92680379 299.69654854 -113.90757463 302.36691458 -113.9375 305.0625 C-113.94201172 305.82111328 -113.94652344 306.57972656 -113.95117188 307.36132812 C-113.9629932 309.24091871 -113.98092922 311.12046899 -114 313 C-110.7 313.66 -107.4 314.32 -104 315 C-103.67 306.09 -103.34 297.18 -103 288 C-104.32 287.34 -105.64 286.68 -107 286 C-109.30467552 283.11915561 -109.96940098 281.24042089 -110.4375 277.5625 C-109.90879625 273.2573409 -108.82657232 271.27287321 -106 268 C-102.53613876 265.61378448 -100.65505456 264.98850781 -96.4375 265.0625 C-91.99743742 266.27342616 -89.44112407 268.07850124 -86.6875 271.75 C-85.62776298 275.21823026 -85.3127431 278.45484314 -86 282 C-87.7475743 285.02089981 -89.83217766 287.41608883 -93 289 C-93.33 298.57 -93.66 308.14 -94 318 C-86.08 319.485 -86.08 319.485 -78 321 C-78.16371094 319.04964844 -78.32742187 317.09929687 -78.49609375 315.08984375 C-79.33066983 303.60019035 -79.10668949 292.07427838 -79.0625 280.5625 C-79.05747335 278.27018327 -79.05291251 275.97786547 -79.04882812 273.68554688 C-79.03791862 268.12367417 -79.02127351 262.56184223 -79 257 C-79.61875 256.731875 -80.2375 256.46375 -80.875 256.1875 C-83 255 -83 255 -85 252 C-85.54605181 248.60873084 -85.54185328 245.39200153 -85 242 C-81.93719682 238.02663372 -78.81436106 235.24424091 -73.75 234.5625 C-69.13957005 235.10038349 -66.26723433 236.72353619 -63 240 C-61.64979023 244.0506293 -61.44271196 247.76461089 -62 252 C-63.79393668 254.87029869 -64.98263276 256.49131638 -68 258 C-68.33 279.12 -68.66 300.24 -69 322 C-65.7 322 -62.4 322 -59 322 C-59.02356567 320.40345581 -59.02356567 320.40345581 -59.04760742 318.7746582 C-59.10203054 314.81444914 -59.13639493 310.85427296 -59.16479492 306.89379883 C-59.1798534 305.18182816 -59.20030455 303.46989589 -59.22631836 301.75805664 C-59.2628319 299.29303495 -59.27975562 296.82852465 -59.29296875 294.36328125 C-59.30845261 293.60163162 -59.32393646 292.83998199 -59.33988953 292.05525208 C-59.34132358 287.49621855 -58.82011102 284.61871916 -56 281 C-54.57407362 279.80092554 -53.14514193 278.60460721 -51.68359375 277.44921875 C-47.21138419 273.59959057 -42.30004536 268.46260773 -40 263 C-40 258.78043104 -40.72949051 257.30349845 -43.5625 254.125 C-46.26224485 250.66378865 -46.70957664 249.19354307 -46.42578125 244.9609375 C-45.55062627 240.93040724 -43.38556101 238.1381394 -40.25 235.5625 C-36.67949255 234.66987314 -33.47946658 234.97338511 -30 236 C-27 237.875 -27 237.875 -25 241 C-24.27383301 245.71310309 -23.89289302 250.15789699 -26.40625 254.33984375 C-26.9321875 254.88769531 -27.458125 255.43554688 -28 256 C-28.66 256 -29.32 256 -30 256 C-29.96519531 256.73605469 -29.93039062 257.47210938 -29.89453125 258.23046875 C-29.62431942 267.97096189 -29.62431942 267.97096189 -33 272 C-33.48726562 272.60199219 -33.97453125 273.20398438 -34.4765625 273.82421875 C-38.10964373 278.1789394 -42.03781696 281.93486736 -46.3984375 285.5546875 C-48.83518856 287.75370675 -48.98931605 288.83533258 -49.20532227 292.16455078 C-49.24715644 293.50799696 -49.28384335 294.85160963 -49.31640625 296.1953125 C-49.3475779 297.25647781 -49.3475779 297.25647781 -49.37937927 298.33908081 C-49.44481078 300.60095425 -49.50372974 302.86294462 -49.5625 305.125 C-49.60569133 306.65756422 -49.64930582 308.19011657 -49.69335938 309.72265625 C-49.80048555 313.48165073 -49.9017709 317.24076292 -50 321 C-47.03 320.67 -44.06 320.34 -41 320 C-39.9635248 313.81304037 -40.03830548 307.96824393 -40.2578125 301.71875 C-39.57214372 291.82849736 -33.54142243 287.07939329 -26.6875 280.5 C-24.81413177 278.67942084 -22.94298303 276.85655465 -21.07421875 275.03125 C-20.19185547 274.17096191 -19.30949219 273.31067383 -18.40039062 272.42431641 C-16.34433668 270.34776884 -14.43836854 268.23934172 -12.57421875 265.9921875 C-10.34686157 263.40318052 -8.96917727 262.2673863 -6.125 260.625 C-3.32512277 258.36021042 -2.75401045 256.44575672 -2.3828125 252.984375 C-2.31132807 251.44894213 -2.26768878 249.91199422 -2.25 248.375 C-2.23469238 247.6217041 -2.21938477 246.8684082 -2.20361328 246.09228516 C-2.21659138 243.59699908 -2.21659138 243.59699908 -3 240 C-5.33892384 237.680684 -5.33892384 237.680684 -8 236 C-10.05631728 232.9728115 -10.18487281 230.95848121 -9.6875 227.375 C-9.58824219 226.59898437 -9.48898437 225.82296875 -9.38671875 225.0234375 C-9 223 -9 223 -8 221 C-7.34 221 -6.68 221 -6 221 C-6 220.34 -6 219.68 -6 219 C-2.44008224 216.62672149 -0.25658339 216.21643644 4 216 C9.15520822 217.71840274 11.58067409 220.16134819 14 225 C14.64621182 230.16969455 13.89830074 233.65254889 11 238 C8.890625 238.6640625 8.890625 238.6640625 7 239 C7.00785522 239.88522339 7.00785522 239.88522339 7.01586914 240.78833008 C7.03666047 243.46304255 7.04966701 246.13773801 7.0625 248.8125 C7.07087891 249.74126953 7.07925781 250.67003906 7.08789062 251.62695312 C7.09272461 252.9659668 7.09272461 252.9659668 7.09765625 254.33203125 C7.10551147 255.56530151 7.10551147 255.56530151 7.11352539 256.82348633 C7 259 7 259 6 262 C5.34 262 4.68 262 4 262 C3.7421875 262.58265625 3.484375 263.1653125 3.21875 263.765625 C1.90165983 266.1802903 0.44911616 267.81740177 -1.5 269.75 C-2.1084375 270.36359375 -2.716875 270.9771875 -3.34375 271.609375 C-5 273 -5 273 -7 273 C-7.26554688 273.58136719 -7.53109375 274.16273438 -7.8046875 274.76171875 C-11.11975884 280.96935234 -16.67123696 285.79981016 -22.0078125 290.26171875 C-22.66523438 290.83535156 -23.32265625 291.40898437 -24 292 C-24.88816406 292.6703125 -25.77632812 293.340625 -26.69140625 294.03125 C-30.09521598 298.40839956 -29.77984745 302.41031695 -29.8125 307.8125 C-29.83763672 308.79154297 -29.86277344 309.77058594 -29.88867188 310.77929688 C-29.94738663 313.18660197 -29.9837798 315.59209562 -30 318 C-21.48514459 316.14032537 -13.53659515 313.47449467 -5.4128418 310.33764648 C-4.23202026 309.88627319 -4.23202026 309.88627319 -3.02734375 309.42578125 C-2.32343506 309.15161377 -1.61952637 308.87744629 -0.89428711 308.5949707 C1 308 1 308 4 308 C4.07706471 302.29016875 4.07706471 302.29016875 1.6328125 297.359375 C0.13910024 296.17298153 -1.42810773 295.08067594 -3 294 C-4.7246216 290.5507568 -4.36610104 286.77868569 -4 283 C-2.34181655 279.1032689 -0.85903616 277.58533377 3 276 C7.18134407 275.42403668 10.91155012 275.59774678 14.875 277.0625 C17.82849841 279.75539561 18.8389707 282.19440396 20 286 C19.78903858 291.27403548 17.88187329 294.97872869 14.3125 298.8125 C13.879375 299.204375 13.44625 299.59625 13 300 C17.45845711 299.49046204 19.6230172 297.87043538 23 295 C23.763125 294.55269531 24.52625 294.10539062 25.3125 293.64453125 C28.27177431 291.83369624 30.83491352 289.7821577 33.5 287.5625 C38.94759655 283.04068882 38.94759655 283.04068882 41.62109375 280.96484375 C43.86939768 279.10787023 45.68844269 277.22625833 47.5625 275 C49.95323631 272.17307854 52.36279594 269.63720406 55 267 C50.05 266.34 45.1 265.68 40 265 C39.34 266.32 38.68 267.64 38 269 C36.09836136 271.12983528 34.71951319 271.91387043 31.87890625 272.25390625 C27.70825093 272.35663175 24.58885521 272.31657662 21 270 C18.07004709 266.96374494 17.56828657 264.73461971 17.5625 260.5625 C17.65951176 256.73819421 17.86395893 255.22673512 19.875 251.875 C23.82207647 248.39228547 27.18077509 248.67071476 32.2890625 248.7109375 C35.90994122 249.09702543 37.68774113 250.20934275 40 253 C40 253.99 40 254.98 40 256 C47.92 256 55.84 256 64 256 C64.66 254.68 65.32 253.36 66 252 C67.01852973 250.63527604 68.04384296 249.27559715 69.07470703 247.92016602 C72.56635573 242.71904082 72.86426827 238.42198202 72.8046875 232.27734375 C72.81839386 231.29125626 72.83210022 230.30516876 72.84622192 229.28919983 C72.88330489 226.1714932 72.87982161 223.05539456 72.875 219.9375 C72.89314192 217.81052222 72.91394928 215.6835654 72.9375 213.55664062 C72.98914788 208.3708269 73.00444474 203.18605668 73 198 C72.05060547 197.57267578 72.05060547 197.57267578 71.08203125 197.13671875 C69 196 69 196 67.6875 193.8125 C66.79260861 190.1515807 67.07187693 187.64619779 68 184 C70.22283069 180.75124746 71.61981182 180.10368769 75.4375 179.0625 C79.48221121 178.99154015 80.92080053 179.43400044 84 182 C86.41403631 184.57497207 87.01171409 186.24497346 86.95703125 189.76953125 C86.71263153 192.52876868 86.3984167 195.25908509 86 198 C85.01 198 84.02 198 83 198 C83 204.6 83 211.2 83 218 C83.763125 215.628125 84.52625 213.25625 85.3125 210.8125 C85.54622314 210.09553955 85.77994629 209.3785791 86.02075195 208.63989258 C89.56496377 197.45233316 91.44695503 186.58979266 92.0625 174.875 C92.1910781 172.4969417 92.3274187 170.1192865 92.47265625 167.7421875 C92.52687744 166.7094873 92.58109863 165.67678711 92.63696289 164.61279297 C93 162 93 162 95 159 C97.27734375 158.3828125 97.27734375 158.3828125 99.9375 158.125 C100.81277344 158.02445313 101.68804687 157.92390625 102.58984375 157.8203125 C105 158 105 158 106.79296875 159.015625 C108.65451925 162.07603812 108.44043426 165.15114201 108.375 168.625 C108.36629883 169.73669556 108.36629883 169.73669556 108.35742188 170.87084961 C108.1711083 179.06950958 106.6831313 186.99510768 105 195 C117.98597149 190.55161402 127.03099213 184.01816104 133.2109375 171.55859375 C135.5733374 166.02560451 137.03663154 160.32164206 138.38671875 154.46875 C139 152 139 152 140 150 C139.41784225 150.00888245 138.83568451 150.01776489 138.23588562 150.0269165 C132.18543298 150.1153019 126.1351632 150.17569735 120.08422852 150.21972656 C117.82503818 150.23986166 115.56590008 150.26717189 113.30688477 150.30175781 C110.06253179 150.35019162 106.81886683 150.37294976 103.57421875 150.390625 C102.56163498 150.41127014 101.54905121 150.43191528 100.50578308 150.45318604 C99.09465996 150.45363922 99.09465996 150.45363922 97.6550293 150.45410156 C96.82674118 150.46298401 95.99845306 150.47186646 95.14506531 150.48101807 C93 150 93 150 91.19734192 148.16693115 C89.50999211 145.11319119 90.07091257 143.28754013 91 140 C93.84614024 137.15385976 96.80369142 137.54420924 100.625 137.375 C101.33140625 137.33632812 102.0378125 137.29765625 102.765625 137.2578125 C104.50998524 137.16352276 106.25495691 137.08067109 108 137 C107.835 135.88625 107.67 134.7725 107.5 133.625 C106.36843245 123.37623101 106.76645754 112.84353367 107.25 102.5625 C107.29640625 101.55316406 107.3428125 100.54382813 107.390625 99.50390625 C108 97 108 97 109.74682617 95.3684082 C112.30212644 93.81651114 113.69774512 93.6141265 116.66015625 93.6015625 C117.53607422 93.59769531 118.41199219 93.59382813 119.31445312 93.58984375 C120.22130859 93.60144531 121.12816406 93.61304688 122.0625 93.625 C122.97322266 93.61339844 123.88394531 93.60179687 124.82226562 93.58984375 C125.69689453 93.59371094 126.57152344 93.59757812 127.47265625 93.6015625 C128.66773804 93.60663818 128.66773804 93.60663818 129.88696289 93.61181641 C132.5547024 94.10190373 133.42560954 94.80890146 135 97 C135.43237305 98.97021484 135.43237305 98.97021484 135.51171875 101.2109375 C135.5473291 102.03754883 135.58293945 102.86416016 135.61962891 103.71582031 C135.6532251 105.03211426 135.6532251 105.03211426 135.6875 106.375 C135.73656494 107.72223145 135.73656494 107.72223145 135.78662109 109.09667969 C135.87588007 111.73100029 135.94275806 114.36480796 136 117 C136.04447266 118.94519531 136.04447266 118.94519531 136.08984375 120.9296875 C136.15115799 126.72047656 135.89758509 132.27789506 135 138 C137.97 137.67 140.94 137.34 144 137 C143.98889694 136.33458694 143.97779388 135.66917389 143.96635437 134.9835968 C143.85572341 128.05699081 143.78031661 121.13063582 143.7253418 114.20336914 C143.70019999 111.6183045 143.66608185 109.03331093 143.62280273 106.44848633 C143.56214078 102.73240626 143.53378581 99.01726614 143.51171875 95.30078125 C143.47300911 93.56771477 143.47300911 93.56771477 143.43351746 91.79963684 C143.43072643 83.81251087 143.43072643 83.81251087 146.26269531 79.77050781 C148.9322247 78.04383754 150.16646098 77.36787454 153.28515625 77.37109375 C154.45208008 77.36819336 154.45208008 77.36819336 155.64257812 77.36523438 C156.44115234 77.38908203 157.23972656 77.41292969 158.0625 77.4375 C158.86494141 77.42654297 159.66738281 77.41558594 160.49414062 77.40429688 C164.03456665 77.44836857 166.39547275 77.66059979 169.51171875 79.41015625 C171.84337317 83.46760214 171.68225597 87.39145928 171.75 92 C171.77819824 92.99298096 171.80639648 93.98596191 171.83544922 95.0090332 C171.91812602 98.33947028 171.96376542 101.66874153 172 105 C172.01514648 106.23927246 172.03029297 107.47854492 172.04589844 108.75537109 C172.0855285 112.56613965 172.11015217 116.37655745 172.125 120.1875 C172.12983398 121.39857422 172.13466797 122.60964844 172.13964844 123.85742188 C172.13739258 124.99115234 172.13513672 126.12488281 172.1328125 127.29296875 C172.13168457 128.2986792 172.13055664 129.30438965 172.12939453 130.34057617 C172 133 172 133 171 137 C173.97 137.33 176.94 137.66 180 138 C179.99111755 136.97127274 179.98223511 135.94254547 179.9730835 134.88264465 C179.89198531 125.18632501 179.83202866 115.4900742 179.79275131 105.79349232 C179.77187949 100.80839207 179.74356913 95.82356568 179.69824219 90.83862305 C179.65477015 86.02755226 179.63085984 81.21674483 179.62049103 76.40549278 C179.6131021 74.57025697 179.5986732 72.73503553 179.57707977 70.89991188 C179.54802743 68.32854732 179.54404471 65.75826995 179.54589844 63.18676758 C179.53151733 62.42863266 179.51713623 61.67049774 179.50231934 60.88938904 C179.53099531 57.21145944 179.89735956 55.16161845 181.88822937 52.02677917 C184.35137258 49.66276895 185.30129674 49.37640252 188.66015625 49.40625 C189.53607422 49.40882813 190.41199219 49.41140625 191.31445312 49.4140625 C192.67473633 49.45660156 192.67473633 49.45660156 194.0625 49.5 C194.97322266 49.49742187 195.88394531 49.49484375 196.82226562 49.4921875 C203.33044138 49.58810756 203.33044138 49.58810756 205.75097656 51.07714844 C207.63269617 53.97402561 207.48074578 56.88563889 207.51171875 60.234375 C207.52976059 60.96830475 207.54780243 61.7022345 207.56639099 62.45840454 C207.621689 64.88888591 207.65514181 67.3191129 207.6875 69.75 C207.71976449 71.44353709 207.75281638 73.13705936 207.78662109 74.83056641 C207.88620022 80.22014457 207.94892756 85.60976395 208 91 C208.00860046 91.90641235 208.01720093 92.81282471 208.02606201 93.7467041 C208.08100159 99.95612214 208.11113059 106.16536277 208.125 112.375 C208.12776947 113.20656616 208.13053894 114.03813232 208.13339233 114.89489746 C208.13920052 117.27112332 208.1374105 119.64721134 208.1328125 122.0234375 C208.13478134 122.71466705 208.13675018 123.40589661 208.13877869 124.11807251 C208.11663084 128.8304869 207.65394696 133.34314437 207 138 C207.84304688 137.97679687 208.68609375 137.95359375 209.5546875 137.9296875 C210.65039062 137.91164062 211.74609375 137.89359375 212.875 137.875 C213.96554687 137.85179687 215.05609375 137.82859375 216.1796875 137.8046875 C219 138 219 138 221 140 C221.265625 141.875 221.265625 141.875 221.25 144 C221.25515625 144.70125 221.2603125 145.4025 221.265625 146.125 C221 148 221 148 219 150 C216.49079154 150.17495606 214.09375059 150.23169569 211.5859375 150.1953125 C210.49147812 150.19106766 210.49147812 150.19106766 209.37490845 150.18673706 C207.04143972 150.17553002 204.70835297 150.1504251 202.375 150.125 C200.79427637 150.11497085 199.21354673 150.10584489 197.6328125 150.09765625 C193.75506086 150.07558905 189.87759522 150.04105615 186 150 C185.80470703 151.15822266 185.80470703 151.15822266 185.60546875 152.33984375 C184.58822311 156.8091617 181.96467821 159.22020602 178.47265625 162.04296875 C174.05790236 164.53092342 170.0983983 165.1133451 165.125 165.75 C164.24585938 165.87503906 163.36671875 166.00007812 162.4609375 166.12890625 C160.30918146 166.43295873 158.15480697 166.71838166 156 167 C155.70867187 167.89460937 155.41734375 168.78921875 155.1171875 169.7109375 C149.06279861 187.56948082 139.13064174 201.25741627 122.1875 210.1875 C115.09160108 213.60969935 107.95620719 216.25619272 100 216 C99.88914062 216.68191406 99.77828125 217.36382812 99.6640625 218.06640625 C94.53828274 240.71029212 79.71598832 261.68691381 65.125 279.1875 C64.41005371 280.0535083 64.41005371 280.0535083 63.68066406 280.93701172 C62.49951552 282.33141142 61.25468728 283.67138333 60 285 C59.34 285 58.68 285 58 285 C57.34 286.32 56.68 287.64 56 289 C55.34 289 54.68 289 54 289 C53.67 289.99 53.34 290.98 53 292 C51.24710944 293.62909091 49.42426823 295.18404347 47.5625 296.6875 C46.57378906 297.49574219 45.58507812 298.30398438 44.56640625 299.13671875 C42 301 42 301 40 301 C40 301.66 40 302.32 40 303 C37.88792864 304.62632569 35.78880834 306.10590243 33.5625 307.5625 C32.89089844 308.00432617 32.21929687 308.44615234 31.52734375 308.90136719 C4.05386244 326.65521743 -27.16466161 337.09592211 -60 337 C-60.91217285 337.00257813 -61.8243457 337.00515625 -62.76416016 337.0078125 C-103.6766651 336.89438327 -141.74257592 321.67782323 -172.19921875 294.578125 C-173.78029323 293.19254129 -175.4176145 291.87169458 -177.0625 290.5625 C-180.04401742 287.96160183 -182.53179095 285.23249855 -185.0859375 282.22265625 C-186.41320898 280.6813961 -187.77551688 279.16988897 -189.1640625 277.68359375 C-194.88410433 271.56059364 -199.60434457 265.12229858 -204 258 C-204.40927734 257.34016113 -204.81855469 256.68032227 -205.24023438 256.00048828 C-210.6208 247.26410651 -215.46241544 238.66319152 -219 229 C-227.49409573 235.58292419 -232.93542442 244.66774463 -234.31298828 255.44970703 C-234.7809624 260.9615165 -234.93576897 266.47029192 -235 272 C-234.23300781 272.2990625 -233.46601563 272.598125 -232.67578125 272.90625 C-229.89898375 274.04129131 -227.47416497 275.30342974 -225 277 C-225 277.66 -225 278.32 -225 279 C-224.34 279 -223.68 279 -223 279 C-220.8272287 282.56334493 -219.97623959 284.52479174 -220.1875 288.75 C-221 292 -221 292 -223 294 C-225.625 294.125 -225.625 294.125 -228 294 C-227.89300781 294.556875 -227.78601563 295.11375 -227.67578125 295.6875 C-226.77763634 301.40472348 -226.88737967 305.97010024 -230 311 C-232.5625 312.9375 -232.5625 312.9375 -235 314 C-235.66 314.33 -236.32 314.66 -237 315 C-242.25189007 315.40399154 -245.56881474 314.88990343 -250 312 C-256.37224646 305.55734197 -257.98235154 299.95226643 -258.1875 291.0625 C-258.13908809 285.77753369 -257.39066026 280.78132052 -255 276 C-255.00595346 273.83294091 -255.05557836 271.66595503 -255.125 269.5 C-255.35040253 252.29989091 -251.53980791 234.97065447 -241 221 C-240.34 221 -239.68 221 -239 221 C-238.835 220.319375 -238.67 219.63875 -238.5 218.9375 C-236.27821187 214.58649824 -232.71737106 212.07457564 -229 209 C-228.01 208.01 -228.01 208.01 -227 207 C-226.98682083 204.7750364 -226.98682083 204.7750364 -227.42578125 202.23046875 C-227.56266357 201.2657666 -227.6995459 200.30106445 -227.84057617 199.30712891 C-227.99631104 198.27765137 -228.1520459 197.24817383 -228.3125 196.1875 C-228.60900305 194.07453078 -228.90329213 191.96124965 -229.1953125 189.84765625 C-229.33743164 188.83074707 -229.47955078 187.81383789 -229.62597656 186.76611328 C-233.03563924 161.54974378 -230.77999972 136.43870089 -224 112 C-223.65324219 110.7315625 -223.30648437 109.463125 -222.94921875 108.15625 C-220.15930186 98.98503231 -216.07011002 90.52282105 -211.83349609 81.94189453 C-209.5711817 77.3584126 -207.42195498 72.93110705 -206 68 C-205.01 68 -204.02 68 -203 68 C-202.89131592 67.41444336 -202.78263184 66.82888672 -202.6706543 66.22558594 C-201.91783591 63.72733607 -200.93844752 62.38334483 -199.26953125 60.390625 C-198.71330078 59.71773438 -198.15707031 59.04484375 -197.58398438 58.3515625 C-196.70709961 57.31128906 -196.70709961 57.31128906 -195.8125 56.25 C-194.67163996 54.8814883 -193.53231273 53.51169729 -192.39453125 52.140625 C-191.83072754 51.46451172 -191.26692383 50.78839844 -190.68603516 50.09179688 C-188.46052742 47.33069778 -186.40250107 44.46013271 -184.3659668 41.55761719 C-183 40 -183 40 -180 39 C-180 38.34 -180 37.68 -180 37 C-179.34 37 -178.68 37 -178 37 C-178 36.34 -178 35.68 -178 35 C-176.35546875 33.59765625 -176.35546875 33.59765625 -174.1875 32.0625 C-171.24864312 29.97571242 -171.24864312 29.97571242 -168.5859375 27.5625 C-166.39434518 25.40329574 -163.94154833 23.72134268 -161.4375 21.9375 C-157.54408629 19.17456727 -157.54408629 19.17456727 -154 16 C-153.154375 15.525625 -152.30875 15.05125 -151.4375 14.5625 C-148.7088869 13.17335949 -148.7088869 13.17335949 -148 10 C-145.9609375 9.19140625 -145.9609375 9.19140625 -143.375 8.5625 C-139.43389303 7.5984446 -136.38134528 6.09755356 -132.89648438 4.02758789 C-129.60677654 2.24509815 -126.10271221 1.11969508 -122.5625 -0.0625 C-121.12603034 -0.55258965 -119.6898311 -1.04347263 -118.25390625 -1.53515625 C-117.54218262 -1.77596924 -116.83045898 -2.01678223 -116.09716797 -2.26489258 C-114.0975713 -2.96579893 -112.13688378 -3.73344294 -110.16796875 -4.515625 C-75.6154107 -17.48813702 -33.6852187 -12.89581569 0 0 Z " fill="#35476D" transform="translate(304,99)"/>
<path d="M0 0 C0.75152344 0.75796875 1.50304687 1.5159375 2.27734375 2.296875 C3.83330345 4.23435465 3.83330345 4.23435465 6 4 C7.59888681 1.56512381 8.96129981 -0.96905961 10.3671875 -3.51953125 C12.03461597 -6.05258646 13.40756523 -7.45381624 16 -9 C18.5625 -8.9375 18.5625 -8.9375 21 -8 C24.03305102 -4.75479256 25.13665317 -1.06083503 26.3125 3.125 C26.51907227 3.84131592 26.72564453 4.55763184 26.93847656 5.2956543 C29.82257382 15.57265418 32.09039818 26.01438915 34.41503906 36.42895508 C34.77221024 37.99880888 35.15051064 39.56428493 35.56542969 41.11987305 C36.25907202 44.12085036 36.16701144 46.93812365 36 50 C34 53 34 53 30.609375 53.85546875 C24.92186388 54.36099685 19.70473031 52.765835 14.25 51.3125 C12.02949912 50.74664099 9.80812845 50.18418511 7.5859375 49.625 C6.48217773 49.3465625 5.37841797 49.068125 4.24121094 48.78125 C-1.3124049 47.44262612 -6.91875133 46.38347135 -12.54199219 45.38208008 C-17.39621767 44.47646429 -21.52739478 43.10580219 -26 41 C-26.96891192 36.15544041 -26.96891192 36.15544041 -26 33 C-22.6580243 29.540762 -18.93159269 26.75722085 -15 24 C-15.66 23.67 -16.32 23.34 -17 23 C-17 22.34 -17 21.68 -17 21 C-18.09054687 20.61521484 -18.09054687 20.61521484 -19.203125 20.22265625 C-22.14155546 18.93811891 -24.23590091 17.41915454 -26.75 15.4375 C-33.39278202 10.48921325 -40.57988014 6.75621421 -47.96118164 3.03125 C-49.29918223 2.35447901 -50.63196819 1.66727737 -51.95874023 0.96875 C-57.05313715 -1.67735952 -62.25761938 -3.65201982 -67.6875 -5.5 C-68.56744629 -5.80260742 -69.44739258 -6.10521484 -70.35400391 -6.41699219 C-107.52396474 -19.12245966 -146.89711748 -22.54040076 -185 -11 C-186.51819807 -10.56369385 -188.03642893 -10.1275018 -189.5546875 -9.69140625 C-207.11952269 -4.51853272 -222.80958896 2.79291805 -238 13 C-238.91136719 13.60714844 -239.82273437 14.21429688 -240.76171875 14.83984375 C-251.95988626 22.50364599 -263.74636782 30.65827939 -272.38720703 41.19091797 C-273.92790063 42.91912559 -275.49582314 44.29540726 -277.30078125 45.73828125 C-281.16249448 49.00448245 -284.16334614 52.65008651 -287.1875 56.6875 C-287.74139404 57.42154053 -288.29528809 58.15558105 -288.8659668 58.91186523 C-323.1816376 105.09311078 -336.02784205 159.91413038 -328.49267578 216.73535156 C-327.62966535 222.45397174 -326.46976274 228.11675697 -325.09472656 233.73413086 C-323.45962056 240.81524426 -325.30039927 244.88142955 -329 251 C-332.78343061 258.31567911 -334.88203126 266.0801488 -337 274 C-337.99 274 -338.98 274 -340 274 C-345.489976 261.60694767 -349.61515443 249.12170102 -353 236 C-353.47953125 234.14761719 -353.47953125 234.14761719 -353.96875 232.2578125 C-363.40827496 192.13983144 -359.16029771 146.8090434 -345.73974609 108.13476562 C-345.04225254 106.12193273 -344.37373946 104.10131024 -343.70703125 102.078125 C-338.38239267 86.47758936 -330.37398213 71.52513906 -321 58 C-320.31333252 56.98450073 -320.31333252 56.98450073 -319.61279297 55.94848633 C-302.68041079 30.93707721 -282.14598306 9.80174544 -257 -7 C-255.95585937 -7.70769531 -254.91171875 -8.41539063 -253.8359375 -9.14453125 C-228.45849124 -26.08100484 -199.63370003 -35.80315408 -169.875 -41.6875 C-168.80233887 -41.90229004 -167.72967773 -42.11708008 -166.62451172 -42.33837891 C-108.65525002 -53.42191037 -46.3360805 -35.52231465 0 0 Z " fill="#F7A6A2" transform="translate(380,77)"/>
<path d="M0 0 C0.33 0.99 0.66 1.98 1 3 C1.99 3.33 2.98 3.66 4 4 C6.45896023 7.36489295 6.52423646 10.99507191 6 15 C4.89259155 18.6282634 3.43456019 22.07964759 1.9375 25.5625 C1.52338867 26.543396 1.10927734 27.52429199 0.68261719 28.53491211 C-0.5248367 31.36590196 -1.75494607 34.18536944 -3 37 C-3.29825684 37.67546875 -3.59651367 38.3509375 -3.90380859 39.046875 C-14.64517095 62.89019378 -30.56853729 83.65493477 -49 102 C-50.25876953 103.29357422 -50.25876953 103.29357422 -51.54296875 104.61328125 C-79.85120835 133.50692019 -117.85966501 152.8556211 -157 162 C-157.90363281 162.22300781 -158.80726563 162.44601562 -159.73828125 162.67578125 C-162.15303435 163.22212435 -164.55127631 163.63286967 -167 164 C-168.18464844 164.18433594 -169.36929688 164.36867188 -170.58984375 164.55859375 C-201.78650359 168.85378605 -233.7762794 166.5348015 -264 158 C-265.23621094 157.65839844 -266.47242188 157.31679688 -267.74609375 156.96484375 C-274.82510104 154.90534457 -281.38792589 152.24577076 -288 149 C-288.59683594 148.71108887 -289.19367188 148.42217773 -289.80859375 148.12451172 C-310.85239634 137.92546555 -329.90831127 126.0013753 -347.39868164 110.40991211 C-349.13036411 108.88521837 -350.89434276 107.40293715 -352.66015625 105.91796875 C-355.28631713 103.67403273 -357.60278232 101.35261617 -359.8125 98.6875 C-362.06201653 95.91088743 -362.06201653 95.91088743 -365 94 C-364.4160774 89.21183467 -362.96032329 85.39112417 -361 81 C-360.566875 79.5459375 -360.566875 79.5459375 -360.125 78.0625 C-358.63244392 73.99943068 -356.38825986 70.59150529 -354 67 C-349.98362128 68.56348542 -347.58486001 71.40072786 -344.8125 74.5625 C-343.82682322 75.65742385 -342.83983026 76.75116418 -341.8515625 77.84375 C-341.3659082 78.38257813 -340.88025391 78.92140625 -340.37988281 79.4765625 C-332.97561739 87.65112305 -324.77552449 94.37942686 -316 101 C-315.01257813 101.74765625 -314.02515625 102.4953125 -313.0078125 103.265625 C-297.95294109 114.43949556 -281.44566695 122.32772299 -264 129 C-263.23042969 129.33386719 -262.46085937 129.66773438 -261.66796875 130.01171875 C-219.84092731 145.50548373 -168.4697749 141.9692439 -128 124 C-112.62103761 116.75783379 -98.10153636 107.82672652 -85 97 C-83.45699219 95.76056641 -83.45699219 95.76056641 -81.8828125 94.49609375 C-66.66386215 82.12091165 -53.82680286 68.36636818 -43 52 C-42.60345215 51.40058594 -42.2069043 50.80117188 -41.79833984 50.18359375 C-33.56677889 37.57478781 -25.98148174 23.94444522 -21.20703125 9.62109375 C-19.66258112 4.98774335 -18.21370996 2.54782463 -14 0 C-8.68762703 -2.59716012 -5.39001843 -1.91848114 0 0 Z " fill="#F6A7A4" transform="translate(445,322)"/>
<path d="M0 0 C2.36497439 1.86708505 3.66030715 3.32061431 5 6 C4.92081762 19.6193695 1.71693105 31.42192395 -7.4375 41.75 C-8.283125 42.4925 -9.12875 43.235 -10 44 C-10.47695313 44.47953125 -10.95390625 44.9590625 -11.4453125 45.453125 C-20.65042308 54.25801338 -32.56087342 56.50659586 -44.8203125 56.2734375 C-54.76107271 55.81727358 -63.6226941 51.62651813 -71 45 C-71 44.34 -71 43.68 -71 43 C-71.598125 42.7421875 -72.19625 42.484375 -72.8125 42.21875 C-79.48804237 38.49951925 -82.98403669 30.03002591 -85 23 C-86.94735668 13.65268793 -86.94735668 13.65268793 -84.39453125 9.19921875 C-82 7 -82 7 -79.01171875 6.4765625 C-77.91472656 6.52554687 -76.81773437 6.57453125 -75.6875 6.625 C-74.59824219 6.65851563 -73.50898438 6.69203125 -72.38671875 6.7265625 C-69 7 -69 7 -65.69140625 7.5078125 C-47.05500872 9.9926655 -27.80165324 7.70108648 -10.296875 0.98828125 C-6.66419692 -0.10066135 -3.77245752 -0.30599837 0 0 Z " fill="#2F4169" transform="translate(286,257)"/>
<path d="M0 0 C1.63601144 4.62504857 0.57583258 8.99602755 -0.25 13.6875 C-0.38768799 14.51096924 -0.52537598 15.33443848 -0.66723633 16.18286133 C-0.95686773 17.91029992 -1.25031352 19.63710284 -1.54736328 21.36328125 C-1.99839467 23.99064857 -2.43683671 26.61981207 -2.87109375 29.25 C-3.57323911 33.50128365 -4.28421726 37.75099184 -5 42 C-7.73828125 42.71484375 -7.73828125 42.71484375 -11 43 C-13.23046875 41.56640625 -13.23046875 41.56640625 -15.1875 39.5625 C-17.09471968 37.58577813 -17.09471968 37.58577813 -19 36 C-22.12444399 35.65592388 -22.12444399 35.65592388 -24.12109375 38.01171875 C-24.88550781 38.89472656 -25.64992188 39.77773437 -26.4375 40.6875 C-27.19933594 41.55761719 -27.96117187 42.42773438 -28.74609375 43.32421875 C-30.18433456 45.03166235 -31.5964022 46.76174142 -32.97265625 48.51953125 C-35.16546324 51.20244539 -37.51866669 53.58229062 -40 56 C-41.81395608 57.79019246 -43.6264178 59.58190018 -45.4375 61.375 C-46.16308105 62.09127563 -46.16308105 62.09127563 -46.90332031 62.82202148 C-49.53987778 65.45015686 -51.96581584 68.1256918 -54.25 71.0625 C-57.035672 74.40209525 -59.62899203 75.4436899 -64 76 C-69.5790919 75.16313621 -72.598186 70.09781732 -76 66 C-77.60939366 64.10242291 -79.07709337 62.61108393 -81 61 C-84.99056842 61.22683231 -86.95333626 63.61398296 -89.625 66.375 C-90.40101563 67.16648437 -91.17703125 67.95796875 -91.9765625 68.7734375 C-94.12600004 71.02749675 -94.12600004 71.02749675 -96 74 C-96.66 74 -97.32 74 -98 74 C-98.268125 74.639375 -98.53625 75.27875 -98.8125 75.9375 C-100 78 -100 78 -103 79 C-103.70294753 80.31456723 -104.36596944 81.65084194 -105 83 C-107.50646734 86.01453505 -110.11731336 88.69848966 -114.09765625 89.3359375 C-117.68078797 89.08143469 -119.8182664 88.15070591 -122.5625 85.875 C-123.99953115 83.0009377 -124.54203611 81.20271355 -123.875 78.02734375 C-120.99634303 71.35759837 -115.09670852 66.01328025 -110 61 C-107.91423261 58.9399494 -105.83185861 56.87649952 -103.75 54.8125 C-103.20859375 54.27947266 -102.6671875 53.74644531 -102.109375 53.19726562 C-99.19242899 50.37492463 -99.19242899 50.37492463 -97 47 C-96.34 47 -95.68 47 -95 47 C-95 46.34 -95 45.68 -95 45 C-94.34 45 -93.68 45 -93 45 C-92.67 44.01 -92.34 43.02 -92 42 C-89.15600195 38.98363843 -87.02931474 37.71517965 -82.9375 37.5625 C-79.13265926 37.98526008 -77.55884836 38.22791428 -75 41 C-75 41.66 -75 42.32 -75 43 C-74.40703125 43.25523437 -73.8140625 43.51046875 -73.203125 43.7734375 C-70.78775462 45.11816498 -69.48788294 46.49214367 -67.75 48.625 C-67.22921875 49.25664062 -66.7084375 49.88828125 -66.171875 50.5390625 C-65.59179688 51.26222656 -65.59179688 51.26222656 -65 52 C-61.1934769 51.25592656 -60.23391273 50.14778612 -58 47 C-57.34 47 -56.68 47 -56 47 C-55.73574219 46.40703125 -55.47148437 45.8140625 -55.19921875 45.203125 C-53.95629575 42.91970946 -52.69598354 41.52573277 -50.8125 39.75 C-47.56332956 36.60215504 -44.596569 33.29235094 -41.64453125 29.8671875 C-39.52869105 27.46487962 -37.2975339 25.22791166 -35 23 C-36.1150032 19.65499039 -36.84024102 19.15981984 -39.5625 17.125 C-42.9445922 14.36410841 -42.9445922 14.36410841 -43.4375 11.125 C-43.293125 10.42375 -43.14875 9.7225 -43 9 C-36.37173732 5.80825165 -29.42654415 4.16202972 -22.3125 2.375 C-21.08982422 2.06304687 -19.86714844 1.75109375 -18.60742188 1.4296875 C-15.40635993 0.61404074 -12.20387781 -0.19549594 -9 -1 C-8.27063232 -1.20931152 -7.54126465 -1.41862305 -6.78979492 -1.63427734 C-3.9791588 -2.20859639 -2.42004476 -1.43894553 0 0 Z " fill="#F6A8A4" transform="translate(521,92)"/>
<path d="M0 0 C2.60186108 2.60186108 2.29810177 3.82354355 2.3125 7.4375 C2.32925781 8.40558594 2.34601563 9.37367188 2.36328125 10.37109375 C2 13 2 13 0.7265625 14.8203125 C-1.71850555 16.4909246 -4.18080438 16.37073274 -7.0625 16.625 C-9.96875871 17.18750169 -11.2552328 18.6969073 -13 21 C-14.59051325 24.18102649 -14.15727532 27.62647135 -14.17578125 31.12109375 C-14.199009 32.79623612 -14.22312747 34.47136632 -14.24804688 36.14648438 C-14.28292338 38.77929465 -14.31236695 41.41166636 -14.32592773 44.04467773 C-14.46922601 67.32734018 -14.46922601 67.32734018 -22 76 C-22.66 76 -23.32 76 -24 76 C-24 76.66 -24 77.32 -24 78 C-24.66 78 -25.32 78 -26 78 C-25.18595703 78.94359375 -25.18595703 78.94359375 -24.35546875 79.90625 C-23.64003906 80.7621875 -22.92460937 81.618125 -22.1875 82.5 C-21.47980469 83.3353125 -20.77210938 84.170625 -20.04296875 85.03125 C-14.0054237 93.80473802 -14.52050469 102.83136319 -14.4375 113.0625 C-14.41356824 115.36212503 -14.3852481 117.66138799 -14.34571838 119.96080017 C-14.32170915 121.38316735 -14.30656946 122.80572394 -14.30210876 124.22828674 C-14.22247922 129.34343174 -13.89078928 134.80668444 -10.4375 138.8125 C-7.37376689 140.30508793 -4.36972425 140.88900158 -1.0234375 141.47265625 C1 142 1 142 3 144 C3.30078125 146.53125 3.30078125 146.53125 3.3125 149.5 C3.32925781 150.4796875 3.34601563 151.459375 3.36328125 152.46875 C3.24339844 153.3040625 3.12351563 154.139375 3 155 C-2.43459997 158.62306665 -9.41145647 157.35098895 -15.6875 156.5 C-21.78029945 153.74099648 -27.44096463 149.34741125 -30 143 C-32.96329322 133.78086553 -32.29175851 123.46989118 -32.47680664 113.90600586 C-32.51683504 111.92543901 -32.56885136 109.94512607 -32.62109375 107.96484375 C-32.65867798 106.21095337 -32.65867798 106.21095337 -32.69702148 104.42163086 C-33.12653048 99.5710518 -34.11205446 94.03365508 -37 90 C-39.36499478 88.94321728 -39.36499478 88.94321728 -42.0625 88.375 C-43.72230399 87.97016976 -45.37328812 87.52215443 -47 87 C-48.29004296 84.41991408 -48.20410224 82.44258426 -48.25 79.5625 C-48.27578125 78.59441406 -48.3015625 77.62632812 -48.328125 76.62890625 C-48 74 -48 74 -46.73828125 72.2109375 C-44.22635346 70.46105522 -41.81531525 70.20471588 -38.83984375 69.72265625 C-36.2985028 68.72446501 -36.0729315 67.45900736 -35 65 C-32.26266128 55.79435912 -32.62233444 46.30713014 -32.54370117 36.78637695 C-32.32272007 14.29730024 -32.32272007 14.29730024 -23.9296875 5.6953125 C-16.79196883 -0.57547678 -9.34714904 -1.05492758 0 0 Z " fill="#32446B" transform="translate(154,181)"/>
<path d="M0 0 C7.63180222 1.3722466 13.61890921 3.1464987 18.2109375 9.73828125 C21.66779834 15.46294086 22.15698162 20.16982659 22.28125 26.73046875 C22.30886414 27.85525383 22.30886414 27.85525383 22.33703613 29.00276184 C22.3956094 31.39759703 22.44843253 33.79250438 22.5 36.1875 C22.73149958 49.62791413 22.73149958 49.62791413 24 63 C24.66 63 25.32 63 26 63 C26.33837891 64.15435547 26.33837891 64.15435547 26.68359375 65.33203125 C28.32909588 68.66698066 29.69789557 69.23031161 33.0625 70.6875 C37.91168353 72.82336707 37.91168353 72.82336707 39 75 C39.14640501 76.64142541 39.22096589 78.2898141 39.25 79.9375 C39.27578125 80.81277344 39.3015625 81.68804687 39.328125 82.58984375 C39 85 39 85 37.765625 86.70703125 C35.74712208 88.18518272 33.85569721 88.91765365 31.5 89.75 C27.82961033 91.3111073 27.13738561 91.76816179 25 95.375 C23.37379943 101.26997706 22.85179581 106.86473037 22.7890625 112.9609375 C22.76099587 114.50001067 22.73233142 116.03907304 22.703125 117.578125 C22.66194733 119.97623405 22.62500945 122.3741408 22.59863281 124.77246094 C22.57081202 127.10652963 22.52495555 129.43971618 22.4765625 131.7734375 C22.47330963 132.47890717 22.47005676 133.18437683 22.46670532 133.91122437 C22.30621198 140.50628108 20.70198011 147.02049801 15.875 151.8125 C9.28394358 157.83939502 2.14753339 158.3338986 -6.49609375 158.30078125 C-9 158 -9 158 -11 156 C-11.23046875 153.46875 -11.23046875 153.46875 -11.1875 150.5 C-11.18105469 149.5203125 -11.17460937 148.540625 -11.16796875 147.53125 C-11 145 -11 145 -10 143 C-8.22000726 142.66081572 -6.4242363 142.40236943 -4.625 142.1875 C-0.13351373 141.55789729 -0.13351373 141.55789729 3.125 138.5625 C4.67998865 134.00860468 5.16235141 130.18505776 5.2109375 125.40234375 C5.23903468 123.8626201 5.26769929 122.32290672 5.296875 120.78320312 C5.33788222 118.36987922 5.37478811 115.95674106 5.40136719 113.54321289 C5.65861055 92.0212575 5.65861055 92.0212575 11.4375 84.4375 C13.78985497 82.19989406 14.8194259 81.23559808 18 81 C17.278125 80.319375 16.55625 79.63875 15.8125 78.9375 C5.19891995 68.17315887 5.66970083 56.22367899 5.54370117 41.85644531 C5.4267721 30.1226179 5.4267721 30.1226179 2 19 C-1.57354423 16.61763718 -3.76866028 16.68980209 -7.94140625 16.5390625 C-10 16 -10 16 -11.2578125 14.2109375 C-12.70713726 9.89347531 -12.66059134 5.7615769 -11.0625 1.5 C-7.58345547 -1.0302142 -4.14274068 -0.50930245 0 0 Z " fill="#304269" transform="translate(341,178)"/>
<path d="M0 0 C0.87591797 0.00257813 1.75183594 0.00515625 2.65429688 0.0078125 C4.01458008 0.05035156 4.01458008 0.05035156 5.40234375 0.09375 C6.31306641 0.09117187 7.22378906 0.08859375 8.16210938 0.0859375 C14.67028513 0.18185756 14.67028513 0.18185756 17.09082031 1.67089844 C18.97253992 4.56777561 18.82058953 7.47938889 18.8515625 10.828125 C18.86960434 11.56205475 18.88764618 12.2959845 18.90623474 13.05215454 C18.96153275 15.48263591 18.99498556 17.9128629 19.02734375 20.34375 C19.05960824 22.03728709 19.09266013 23.73080936 19.12646484 25.42431641 C19.22604397 30.81389457 19.28877131 36.20351395 19.33984375 41.59375 C19.34844421 42.50016235 19.35704468 43.40657471 19.36590576 44.3404541 C19.42084534 50.54987214 19.45097434 56.75911277 19.46484375 62.96875 C19.46761322 63.80031616 19.47038269 64.63188232 19.47323608 65.48864746 C19.47904427 67.86487332 19.47725425 70.24096134 19.47265625 72.6171875 C19.47462509 73.30841705 19.47659393 73.99964661 19.47862244 74.71182251 C19.4561998 79.48270419 18.94099026 83.7845779 18.33984375 88.59375 C9.42984375 88.59375 0.51984375 88.59375 -8.66015625 88.59375 C-8.75053695 77.8582613 -8.82391816 67.12302542 -8.86740494 56.38724232 C-8.88827676 51.40214207 -8.91658712 46.41731568 -8.96191406 41.43237305 C-9.0053861 36.62130226 -9.02929641 31.81049483 -9.03966522 26.99924278 C-9.04705415 25.16400697 -9.06148305 23.32878553 -9.08307648 21.49366188 C-9.11212882 18.92229732 -9.11611154 16.35201995 -9.11425781 13.78051758 C-9.13582947 12.6433152 -9.13582947 12.6433152 -9.15783691 11.48313904 C-9.12916094 7.80520944 -8.76279669 5.75536845 -6.77192688 2.62052917 C-4.30878367 0.25651895 -3.35885951 -0.02984748 0 0 Z " fill="#F8A8A4" transform="translate(492.66015625,148.40625)"/>
<path d="M0 0 C1.16692383 -0.00290039 1.16692383 -0.00290039 2.35742188 -0.00585938 C3.15599609 0.01798828 3.95457031 0.04183594 4.77734375 0.06640625 C5.57978516 0.05544922 6.38222656 0.04449219 7.20898438 0.03320312 C10.7494104 0.07727482 13.1103165 0.28950604 16.2265625 2.0390625 C18.55812496 6.09634835 18.39749643 10.02048087 18.46484375 14.62890625 C18.50605347 16.11946533 18.50605347 16.11946533 18.5480957 17.64013672 C18.62891132 20.96973996 18.67438877 24.29857787 18.71484375 27.62890625 C18.73530762 28.86286133 18.75577148 30.09681641 18.77685547 31.36816406 C18.83538586 35.16344867 18.87364902 38.95828563 18.90234375 42.75390625 C18.91555664 43.95660156 18.92876953 45.15929687 18.94238281 46.3984375 C18.94334961 47.52894531 18.94431641 48.65945312 18.9453125 49.82421875 C18.94942139 50.82469238 18.95353027 51.82516602 18.95776367 52.85595703 C18.70067701 55.7906207 17.94293109 57.96587018 16.71484375 60.62890625 C12.56902488 60.65777376 8.42323159 60.67565952 4.27734375 60.69140625 C2.50133789 60.70397461 2.50133789 60.70397461 0.68945312 60.71679688 C-0.43525391 60.72001953 -1.55996094 60.72324219 -2.71875 60.7265625 C-4.2819397 60.73441772 -4.2819397 60.73441772 -5.87670898 60.74243164 C-8.28515625 60.62890625 -8.28515625 60.62890625 -9.28515625 59.62890625 C-9.4047722 57.96822988 -9.45529883 56.30251885 -9.47802734 54.63769531 C-9.49409027 53.5727887 -9.5101532 52.50788208 -9.52670288 51.41070557 C-9.57100521 46.52608742 -9.61223014 41.64160795 -9.63525391 36.75683594 C-9.65181007 34.17861909 -9.67909517 31.60044808 -9.71728516 29.02246094 C-9.77199131 25.31290777 -9.79392104 21.60443326 -9.80859375 17.89453125 C-9.83126312 16.74229065 -9.8539325 15.59005005 -9.87728882 14.40289307 C-9.8562339 6.44264728 -9.8562339 6.44264728 -7.02026367 2.40161133 C-4.3514034 0.67184302 -3.11970259 -0.00322025 0 0 Z " fill="#F7A7A3" transform="translate(457.28515625,176.37109375)"/>
<path d="M0 0 C1.31387695 -0.00580078 1.31387695 -0.00580078 2.65429688 -0.01171875 C3.56115234 -0.00011719 4.46800781 0.01148438 5.40234375 0.0234375 C6.76842773 0.00603516 6.76842773 0.00603516 8.16210938 -0.01171875 C9.47405273 -0.00591797 9.47405273 -0.00591797 10.8125 0 C12.00758179 0.00507568 12.00758179 0.00507568 13.22680664 0.01025391 C15.89454615 0.50034123 16.76545329 1.20733896 18.33984375 3.3984375 C18.7722168 5.36865234 18.7722168 5.36865234 18.8515625 7.609375 C18.88717285 8.43598633 18.9227832 9.26259766 18.95947266 10.11425781 C18.98187012 10.99178711 19.00426758 11.86931641 19.02734375 12.7734375 C19.06005371 13.6715918 19.09276367 14.56974609 19.12646484 15.49511719 C19.21572382 18.12943779 19.28260181 20.76324546 19.33984375 23.3984375 C19.36949219 24.69523437 19.39914062 25.99203125 19.4296875 27.328125 C19.49120316 33.13793729 19.1174986 38.64626035 18.33984375 44.3984375 C14.02735766 44.42730287 9.71489613 44.44519005 5.40234375 44.4609375 C4.17064453 44.46931641 2.93894531 44.47769531 1.66992188 44.48632812 C0.50009766 44.48955078 -0.66972656 44.49277344 -1.875 44.49609375 C-3.50103149 44.50394897 -3.50103149 44.50394897 -5.15991211 44.51196289 C-7.66015625 44.3984375 -7.66015625 44.3984375 -8.66015625 43.3984375 C-10.50422816 32.12910915 -9.9449003 20.33061454 -9.41015625 8.9609375 C-9.36375 7.95160156 -9.31734375 6.94226563 -9.26953125 5.90234375 C-8.66015625 3.3984375 -8.66015625 3.3984375 -6.91333008 1.7668457 C-4.35802981 0.21494864 -2.96241113 0.012564 0 0 Z " fill="#F7A8A4" transform="translate(420.66015625,192.6015625)"/>
<path d="M0 0 C4.73638203 3.7580174 7.0619499 7.91715471 9.0234375 13.60546875 C9.60982493 19.4693431 9.60982493 19.4693431 8.0234375 22.54296875 C4.78436132 24.26372797 1.60293898 24.13715202 -1.9765625 23.60546875 C-3.8515625 22.54296875 -3.8515625 22.54296875 -4.9765625 20.60546875 C-5.2859375 19.42984375 -5.5953125 18.25421875 -5.9140625 17.04296875 C-6.60187198 13.5587233 -6.60187198 13.5587233 -8.9765625 12.23046875 C-9.6365625 12.02421875 -10.2965625 11.81796875 -10.9765625 11.60546875 C-11.6365625 11.27546875 -12.2965625 10.94546875 -12.9765625 10.60546875 C-16.94250997 10.22412765 -19.4873758 10.39444704 -23.1640625 11.98046875 C-26.56404625 15.15378692 -27.64752634 18.01875658 -29.1171875 22.36328125 C-29.9765625 24.60546875 -29.9765625 24.60546875 -31.9765625 26.60546875 C-39.07515405 27.28152509 -39.07515405 27.28152509 -41.9765625 25.10546875 C-44.40133948 19.04352631 -43.16841359 14.47113337 -40.7265625 8.66796875 C-39.4609375 5.828125 -39.4609375 5.828125 -37.9765625 3.60546875 C-35.8046875 2.7890625 -35.8046875 2.7890625 -33.9765625 2.60546875 C-33.9765625 1.94546875 -33.9765625 1.28546875 -33.9765625 0.60546875 C-32.56328121 -0.21290567 -31.14577904 -1.02399344 -29.7265625 -1.83203125 C-28.54320312 -2.51072266 -28.54320312 -2.51072266 -27.3359375 -3.203125 C-18.39998909 -7.71548305 -7.97196131 -5.4307374 0 0 Z " fill="#35466B" transform="translate(206.9765625,222.39453125)"/>
<path d="M0 0 C5.41878812 3.89503572 9.04438414 10.17113947 10.34765625 16.6875 C10.28515625 19.875 10.28515625 19.875 9.34765625 22.6875 C6.52840907 25.1845475 4.99041193 25.6875 1.22265625 25.6875 C-1.65234375 24.6875 -1.65234375 24.6875 -3.33984375 22.4375 C-3.77296875 21.53 -4.20609375 20.6225 -4.65234375 19.6875 C-6.90081503 15.19055743 -8.84431391 13.35181802 -13.65234375 11.6875 C-17.86299835 11.6875 -19.95364503 12.16753816 -23.33984375 14.6875 C-25.83428737 17.92353497 -27.33327024 21.02880985 -28.85546875 24.796875 C-29.65234375 26.6875 -29.65234375 26.6875 -30.65234375 27.6875 C-37.98296987 28.16044362 -37.98296987 28.16044362 -40.3828125 26.46484375 C-42.88158815 22.96655784 -42.20428998 18.78160667 -41.65234375 14.6875 C-40.06083472 9.89664975 -37.63169174 5.87097839 -33.65234375 2.6875 C-32.99234375 2.6875 -32.33234375 2.6875 -31.65234375 2.6875 C-31.65234375 2.0275 -31.65234375 1.3675 -31.65234375 0.6875 C-21.71121008 -5.20354218 -10.25271678 -5.31510502 0 0 Z " fill="#37486E" transform="translate(311.65234375,212.3125)"/>
<path d="M0 0 C3.35411788 2.58009068 4.8232132 5.20445942 5.75 9.375 C4.66108644 14.63808223 2.11583017 17.62212829 -2 21 C-8.85968571 24.86098633 -17.26659506 25.23653556 -24.78125 23.2734375 C-29.67886474 21.50165335 -33.53323234 19.82140952 -36 15 C-36.74988698 10.41735735 -36.42189472 8.62681501 -33.8125 4.75 C-24.87106557 -3.99273589 -11.15052083 -5.73701846 0 0 Z " fill="#F6A7A4" transform="translate(185,261)"/>
<path d="M0 0 C3.16653332 1.72578657 4.258248 2.606122 6.3125 5.6875 C7.0100699 10.01892243 6.88716113 13.61001039 4.8125 17.5 C-1.33518434 22.8792238 -8.17398535 25.04064336 -16.25 24.89453125 C-22.23086926 24.38654075 -27.0395398 22.83575067 -31.25 18.4375 C-33.28900516 15.74533162 -33.71478221 14.52926316 -34.3125 11.0625 C-33.5596873 6.99731144 -32.72065227 5.49316585 -29.6875 2.6875 C-20.4396073 -2.83890671 -10.05180942 -4.87937688 0 0 Z " fill="#F6A8A5" transform="translate(332.6875,248.3125)"/>
<path d="M0 0 C2.625 2.25 2.625 2.25 4 4 C-0.68621107 9.65577198 -6.74793661 13.30827072 -14.12060547 14.27929688 C-24.5780118 15.07596639 -32.77929558 14.24828595 -41.5625 8.25 C-42.036875 7.8375 -42.51125 7.425 -43 7 C-41.5304003 3.19390191 -39.61508531 1.8268074 -36.125 -0.1875 C-35.26132813 -0.69667969 -34.39765625 -1.20585937 -33.5078125 -1.73046875 C-23.98302705 -6.55220593 -9.01738468 -5.50339354 0 0 Z " fill="#F4A5A4" transform="translate(266,291)"/>
<path d="M0 0 C13.64872038 1.96908417 27.25022665 10.77328867 38 19 C38.495 19.99 38.495 19.99 39 21 C33.76726669 21.04935824 28.53466824 21.08569949 23.30175781 21.10986328 C21.52080933 21.11993431 19.73987743 21.13359185 17.95898438 21.15087891 C15.40230217 21.17507913 12.84583815 21.18647184 10.2890625 21.1953125 C9.49005524 21.20563507 8.69104797 21.21595764 7.86782837 21.22659302 C5.9104278 21.22699226 3.95356923 21.12241069 2 21 C0 19 0 19 -0.22705078 17.02880859 C-0.21657715 16.24328613 -0.20610352 15.45776367 -0.1953125 14.6484375 C-0.18886719 13.79765625 -0.18242187 12.946875 -0.17578125 12.0703125 C-0.15902344 11.18085937 -0.14226562 10.29140625 -0.125 9.375 C-0.11597656 8.4778125 -0.10695313 7.580625 -0.09765625 6.65625 C-0.0740497 4.43723414 -0.0411231 2.21874923 0 0 Z " fill="#F4F5F2" transform="translate(293,111)"/>
<path d="M0 0 C0.33 0 0.66 0 1 0 C1.02698189 1.62490954 1.04638757 3.24994633 1.0625 4.875 C1.07410156 5.77992188 1.08570313 6.68484375 1.09765625 7.6171875 C1 10 1 10 0 12 C-2.07438417 24.25580038 -2.31409664 36.50143768 -2.26074219 48.90429688 C-2.24993806 51.89212981 -2.26074831 54.87937167 -2.2734375 57.8671875 C-2.29527605 70.46791051 -2.29527605 70.46791051 -0.4453125 82.90527344 C0.18024708 85.84787279 0.19555048 88.68910468 0.125 91.6875 C0.10695313 92.70199219 0.08890625 93.71648437 0.0703125 94.76171875 C0.03550781 95.86966797 0.03550781 95.86966797 0 97 C-13.47794114 72.83493432 -6.24646903 25.98531116 0 0 Z " fill="#EDBAB7" transform="translate(27,211)"/>
<path d="M0 0 C2.41309631 0.0107455 4.82545108 0.00002439 7.23852539 -0.01269531 C25.43027489 -0.03037279 25.43027489 -0.03037279 33.84985352 2.26074219 C34.34485352 3.25074219 34.34485352 3.25074219 34.84985352 4.26074219 C34.07496582 4.20015625 33.30007813 4.13957031 32.50170898 4.07714844 C28.90982659 3.79949438 25.31736798 3.53008978 21.72485352 3.26074219 C20.50668945 3.16535156 19.28852539 3.06996094 18.03344727 2.97167969 C4.84136015 1.99448805 -7.88512066 2.08283004 -21.02514648 3.63574219 C-22.18272461 3.76207031 -23.34030273 3.88839844 -24.53295898 4.01855469 C-30.57286677 4.70804188 -36.28136788 5.69573456 -42.15014648 7.26074219 C-45.65014648 7.38574219 -45.65014648 7.38574219 -48.15014648 7.26074219 C-47.82014648 6.60074219 -47.49014648 5.94074219 -47.15014648 5.26074219 C-44.57605347 4.65578496 -42.06885781 4.17428226 -39.46264648 3.76074219 C-38.42914063 3.58478516 -38.42914063 3.58478516 -37.37475586 3.40527344 C-35.85501552 3.15130066 -34.33340588 2.90837734 -32.81054688 2.67382812 C-30.90315757 2.3776638 -28.99893981 2.0607885 -27.09716797 1.73046875 C-18.02075621 0.25445832 -9.16870485 -0.04845743 0 0 Z " fill="#EFBFBC" transform="translate(245.150146484375,56.7392578125)"/>
<path d="M0 0 C1.32 0 2.64 0 4 0 C4.3125 2.2109375 4.3125 2.2109375 4 5 C1.8125 7.3515625 1.8125 7.3515625 -1 9.625 C-3.76582321 11.81497629 -3.76582321 11.81497629 -6 14 C-6 14.99 -6 15.98 -6 17 C-0.71389447 19.47060325 4.35543916 20.90585631 10.0625 22.0625 C15.16386731 23.11664146 20.08487837 24.23055621 25 26 C21.30197005 27.31029032 18.58804566 26.70021518 14.80859375 25.85546875 C13.61685547 25.59056641 12.42511719 25.32566406 11.19726562 25.05273438 C9.95654297 24.76720703 8.71582031 24.48167969 7.4375 24.1875 C6.19291016 23.91357422 4.94832031 23.63964844 3.66601562 23.35742188 C-5.60282887 21.26478075 -5.60282887 21.26478075 -9 19 C-10.17076983 14.23329426 -10.17076983 14.23329426 -9 11 C-5.6447472 7.55420863 -1.93163951 4.75725368 2 2 C1.34 1.34 0.68 0.68 0 0 Z " fill="#EDB8B4" transform="translate(363,99)"/>
<path d="M0 0 C0.66 0.33 1.32 0.66 2 1 C-3.64267167 7.54292698 -9.60634297 13.74145872 -15.6875 19.875 C-16.41187256 20.61226318 -17.13624512 21.34952637 -17.88256836 22.10913086 C-21.69878682 25.93235075 -25.36631603 29.21249248 -30 32 C-28.40275069 28.18284487 -25.85597375 25.41588226 -23.0625 22.4375 C-22.57885986 21.91663818 -22.09521973 21.39577637 -21.59692383 20.85913086 C-7.86568291 6.16499471 -7.86568291 6.16499471 0 0 Z " fill="#EEB7B1" transform="translate(105,83)"/>
<path d="M0 0 C0.66 0 1.32 0 2 0 C2 16.17 2 32.34 2 49 C1.34 49 0.68 49 0 49 C-0.16782542 42.1825293 -0.32778898 35.36490729 -0.48217773 28.54711914 C-0.53568563 26.22578716 -0.59102145 23.90449658 -0.64819336 21.58325195 C-0.72985982 18.25481093 -0.80504119 14.92627837 -0.87890625 11.59765625 C-0.90594131 10.55287613 -0.93297638 9.50809601 -0.96083069 8.43165588 C-0.98092697 7.47073532 -1.00102325 6.50981476 -1.02172852 5.51977539 C-1.04171402 4.66928116 -1.06169952 3.81878693 -1.08229065 2.94252014 C-1 1 -1 1 0 0 Z " fill="#9BA3B5" transform="translate(177,116)"/>
<path d="M0 0 C2.5 1.375 2.5 1.375 4 3 C4 3.66 4 4.32 4 5 C4.59296875 5.25523437 5.1859375 5.51046875 5.796875 5.7734375 C8.21224538 7.11816498 9.51211706 8.49214367 11.25 10.625 C11.77078125 11.25664062 12.2915625 11.88828125 12.828125 12.5390625 C13.40820312 13.26222656 13.40820312 13.26222656 14 14 C17.33283508 13.34749649 17.33283508 13.34749649 19.75 10.9375 C20.1625 10.298125 20.575 9.65875 21 9 C21.66 9.33 22.32 9.66 23 10 C19.75364199 15.65106765 19.75364199 15.65106765 16.73046875 17.05078125 C14 17 14 17 11.0625 14.578125 C10.02610859 13.48327048 9.00569776 12.37311425 8 11.25 C2.37476606 4.66401696 2.37476606 4.66401696 -5.4375 1.875 C-8.79026273 3.34694461 -10.32203013 5.49903243 -12.47265625 8.40625 C-14.26016534 10.27147688 -15.48358404 10.6103614 -18 11 C-18 10.34 -18 9.68 -18 9 C-17.34 9 -16.68 9 -16 9 C-16 8.34 -16 7.68 -16 7 C-15.34 7 -14.68 7 -14 7 C-13.67 6.01 -13.34 5.02 -13 4 C-8.79201452 -0.46301491 -5.83320406 -0.64813378 0 0 Z " fill="#EDC5C1" transform="translate(442,130)"/>
<path d="M0 0 C3.47639983 2.67415372 4.88102978 5.233303 5.5625 9.625 C4.92389342 13.45663946 4.01264559 14.64637063 1 17 C1.33 16.01 1.66 15.02 2 14 C2.06740865 12.43881572 2.08514456 10.8749748 2.0625 9.3125 C2.041875 7.889375 2.02125 6.46625 2 5 C-0.64 3.68 -3.28 2.36 -6 1 C-6 0.34 -6 -0.32 -6 -1 C-8.52093298 -0.688288 -11.0417457 -0.37565098 -13.5625 -0.0625 C-14.26697266 0.02451172 -14.97144531 0.11152344 -15.69726562 0.20117188 C-20.13911927 0.75384491 -24.57074664 1.35394596 -29 2 C-26.72529378 -1.12772105 -23.92078883 -1.85403916 -20.23828125 -2.6484375 C-13.13755799 -3.76373435 -6.47781296 -3.33287862 0 0 Z " fill="#EDBFB9" transform="translate(185,261)"/>
<path d="M0 0 C1.65 0.33 3.3 0.66 5 1 C5.5625 2.9375 5.5625 2.9375 6 5 C5.67 5.33 5.34 5.66 5 6 C5 6.99 5 7.98 5 9 C1.20241779 10.01268859 -1.20241779 10.01268859 -5 9 C-5.98120464 5.94736336 -5.98120464 4.05263664 -5 1 C-3.68 1.66 -2.36 2.32 -1 3 C-0.67 2.01 -0.34 1.02 0 0 Z " fill="#E1E2DD" transform="translate(294,171)"/>
<path d="M0 0 C0.59296875 0.21269531 1.1859375 0.42539063 1.796875 0.64453125 C-1.15338226 3.65256697 -4.11462169 6.64954915 -7.078125 9.64453125 C-7.91988281 10.50304687 -8.76164062 11.3615625 -9.62890625 12.24609375 C-10.43457031 13.05820313 -11.24023438 13.8703125 -12.0703125 14.70703125 C-12.81394043 15.46113281 -13.55756836 16.21523437 -14.32373047 16.9921875 C-16.203125 18.64453125 -16.203125 18.64453125 -18.203125 18.64453125 C-17.69572038 14.24702453 -15.12019186 11.77504203 -12.203125 8.64453125 C-11.543125 8.64453125 -10.883125 8.64453125 -10.203125 8.64453125 C-10.203125 7.98453125 -10.203125 7.32453125 -10.203125 6.64453125 C-9.543125 6.64453125 -8.883125 6.64453125 -8.203125 6.64453125 C-8.203125 5.98453125 -8.203125 5.32453125 -8.203125 4.64453125 C-2.96161877 -0.47784984 -2.96161877 -0.47784984 0 0 Z " fill="#5A6683" transform="translate(134.203125,129.35546875)"/>
<path d="M0 0 C0.33 0 0.66 0 1 0 C1.0501123 0.77375977 1.10022461 1.54751953 1.15185547 2.34472656 C2.1700616 17.92951435 3.30084012 33.47257091 5 49 C-4.30846456 38.33989538 -0.17059251 13.52273739 0 0 Z " fill="#EEBFBB" transform="translate(47,252)"/>
<path d="M0 0 C0.33 0.99 0.66 1.98 1 3 C0.67 3.66 0.34 4.32 0 5 C1.32 5.33 2.64 5.66 4 6 C3.34 6.66 2.68 7.32 2 8 C1.31246699 9.65816784 0.64438717 11.32459336 0 13 C-1 14 -1 14 -3.5625 14.0625 C-4.366875 14.041875 -5.17125 14.02125 -6 14 C-6.28775931 10.94975136 -6.45410807 8.03819925 -6 5 C-3.5625 3.0625 -3.5625 3.0625 -1 2 C-0.67 1.34 -0.34 0.68 0 0 Z " fill="#2E3F66" transform="translate(177,166)"/>
<path d="M0 0 C0.66 1.32 1.32 2.64 2 4 C-0.25858133 6.34546698 -2.53376648 8.67412027 -4.8125 11 C-5.45509766 11.66773438 -6.09769531 12.33546875 -6.75976562 13.0234375 C-7.69272461 13.97089844 -7.69272461 13.97089844 -8.64453125 14.9375 C-9.21534424 15.52402344 -9.78615723 16.11054688 -10.37426758 16.71484375 C-12 18 -12 18 -15 18 C-13.82744291 14.66272214 -12.81131596 12.22562513 -10 10 C-9.34 10 -8.68 10 -8 10 C-7.67 9.01 -7.34 8.02 -7 7 C-5.37550757 5.29220027 -3.70779973 3.62449243 -2 2 C-1.34 1.34 -0.68 0.68 0 0 Z " fill="#4F5C7B" transform="translate(243,133)"/>
<path d="M0 0 C0.99 0.66 1.98 1.32 3 2 C1.54782324 3.50596108 0.08807139 5.00462104 -1.375 6.5 C-2.18710937 7.3353125 -2.99921875 8.170625 -3.8359375 9.03125 C-6 11 -6 11 -8 11 C-8.268125 11.598125 -8.53625 12.19625 -8.8125 12.8125 C-10.47370091 15.87260694 -11.81204519 17.62664277 -15.1875 18.6875 C-15.785625 18.790625 -16.38375 18.89375 -17 19 C-15.60652624 15.84795019 -13.97514921 13.73828227 -11.5234375 11.328125 C-10.51796875 10.33232422 -10.51796875 10.33232422 -9.4921875 9.31640625 C-8.79351562 8.63449219 -8.09484375 7.95257813 -7.375 7.25 C-6.66859375 6.55261719 -5.9621875 5.85523438 -5.234375 5.13671875 C-3.49401297 3.41987512 -1.74915019 1.70788168 0 0 Z " fill="#4A5674" transform="translate(283,374)"/>
<path d="M0 0 C4.38462134 0.50109958 6.8000997 1.98295115 10 5 C10 5.66 10 6.32 10 7 C11.65 7 13.3 7 15 7 C15.66 5.35 16.32 3.7 17 2 C17.33 2 17.66 2 18 2 C18 4.31 18 6.62 18 9 C15.5 9.9375 15.5 9.9375 12 10 C9.72104647 8.36052684 7.80823965 6.55820603 5.83203125 4.56640625 C4.02170283 2.67507167 4.02170283 2.67507167 1 3 C-0.45034604 4.30456502 -0.45034604 4.30456502 -1.6875 6 C-2.450625 6.99 -3.21375 7.98 -4 9 C-4.33 8.01 -4.66 7.02 -5 6 C-3.59554165 3.7363436 -1.8032087 1.9791315 0 0 Z " fill="#EBBDB9" transform="translate(498,125)"/>
<path d="M0 0 C1.41093095 2.82186191 0.60293649 5.02504103 0.05859375 8.02734375 C-0.20029396 10.32698145 -0.20029396 10.32698145 2 13 C5.24210519 13.83787121 5.24210519 13.83787121 9 13 C11.94581149 10.93330503 14.48182441 8.5639606 17 6 C17 9 17 9 15.53125 10.859375 C10.26184984 15.76397053 10.26184984 15.76397053 6.828125 16.40625 C3.27815047 16.13933462 1.15145668 15.12559822 -1.5625 12.875 C-3.44803412 9.10393176 -3.04491081 7.03037028 -2 3 C-1.34 2.01 -0.68 1.02 0 0 Z " fill="#ECC1BD" transform="translate(400,165)"/>
<path d="M0 0 C-3.02534711 2.58185923 -5.33916859 3.51652656 -9.24609375 4.16796875 C-10.74946289 4.42416992 -10.74946289 4.42416992 -12.28320312 4.68554688 C-13.32412109 4.85119141 -14.36503906 5.01683594 -15.4375 5.1875 C-16.47455078 5.36474609 -17.51160156 5.54199219 -18.58007812 5.72460938 C-23.11091967 6.47829464 -27.39670444 7.10231854 -32 7 C-28.96732007 4.97821338 -27.14444676 4.44043595 -23.6328125 3.7109375 C-22.58222656 3.49179687 -21.53164062 3.27265625 -20.44921875 3.046875 C-19.35222656 2.82515625 -18.25523437 2.6034375 -17.125 2.375 C-16.03574219 2.14554688 -14.94648438 1.91609375 -13.82421875 1.6796875 C-9.13511094 0.7154646 -4.8047059 -0.14308172 0 0 Z " fill="#EFC0BC" transform="translate(223,34)"/>
<path d="M0 0 C0.66 0.33 1.32 0.66 2 1 C-0.26727333 2.17407021 -2.53834624 3.33939739 -4.8125 4.5 C-5.45509766 4.83386719 -6.09769531 5.16773438 -6.75976562 5.51171875 C-9.69547699 7.00239084 -11.66126517 8 -15 8 C-15 8.66 -15 9.32 -15 10 C-23.261959 14.40774487 -23.261959 14.40774487 -28 15 C-24.94952458 11.71554255 -21.36209251 9.99473453 -17.375 8.0625 C-16.65876465 7.71131104 -15.9425293 7.36012207 -15.20458984 6.99829102 C-13.14015989 5.99083612 -11.0710297 4.99380227 -9 4 C-8.01515625 3.52304687 -7.0303125 3.04609375 -6.015625 2.5546875 C-4.04196701 1.63235713 -2.02511894 0.80306441 0 0 Z " fill="#EEC2BC" transform="translate(162,49)"/>
<path d="M0 0 C2.625 0.375 2.625 0.375 5 1 C5.625 3.375 5.625 3.375 6 6 C4 8 4 8 1.4375 8.1875 C-1 8 -1 8 -2 7 C-2.1875 4.5625 -2.1875 4.5625 -2 2 C-1.34 1.34 -0.68 0.68 0 0 Z " fill="#E3E6E9" transform="translate(154,152)"/>
<path d="M0 0 C0.33 0 0.66 0 1 0 C4.005848 12.38715705 4.005848 12.38715705 0.8125 17.9375 C-0.10922226 19.30245483 -1.04575168 20.65758287 -2 22 C-3.01396122 23.99295826 -4.0206706 25.98979754 -5 28 C-5.33 28 -5.66 28 -6 28 C-5.49395973 21.54798658 -5.49395973 21.54798658 -3 18.78125 C-0.32478249 15.06102565 -0.33794295 12.16059808 -0.25 7.6875 C-0.22035156 6.94693359 -0.19070312 6.20636719 -0.16015625 5.44335938 C-0.08994155 3.62947954 -0.04264952 1.81473722 0 0 Z " fill="#EFC0BC" transform="translate(53,306)"/>
<path d="M0 0 C2.625 0.375 2.625 0.375 5 1 C5.625 3.375 5.625 3.375 6 6 C5.34 6.66 4.68 7.32 4 8 C1.375 7.625 1.375 7.625 -1 7 C-1.625 4.625 -1.625 4.625 -2 2 C-1.34 1.34 -0.68 0.68 0 0 Z " fill="#E5E8EB" transform="translate(308,155)"/>
<path d="M0 0 C2.625 0.375 2.625 0.375 5 1 C5.625 3.375 5.625 3.375 6 6 C5.34 6.66 4.68 7.32 4 8 C1.375 7.625 1.375 7.625 -1 7 C-1.625 4.625 -1.625 4.625 -2 2 C-1.34 1.34 -0.68 0.68 0 0 Z " fill="#E8EBED" transform="translate(267,151)"/>
<path d="M0 0 C3.3 0.33 6.6 0.66 10 1 C10 1.66 10 2.32 10 3 C11.06927734 3.16435547 11.06927734 3.16435547 12.16015625 3.33203125 C17.87594422 4.27825187 22.79195618 5.45384524 28 8 C28 8.66 28 9.32 28 10 C22.44070841 9.33796364 17.5179404 7.51802505 12.3125 5.5625 C11.03149414 5.09360352 11.03149414 5.09360352 9.72460938 4.61523438 C6.16683697 3.29329695 3.17780196 2.11853464 0 0 Z " fill="#ECC1BD" transform="translate(294,64)"/>
<path d="M0 0 C1.9375 0.75 1.9375 0.75 4 2 C4.8125 4 4.8125 4 5 6 C4.67 6.66 4.34 7.32 4 8 C2.02 8 0.04 8 -2 8 C-2.6875 5.6875 -2.6875 5.6875 -3 3 C-1.5625 1.1875 -1.5625 1.1875 0 0 Z " fill="#E9EDEF" transform="translate(205,372)"/>
<path d="M0 0 C1.47906892 -0.02689216 2.95827483 -0.04634621 4.4375 -0.0625 C5.26121094 -0.07410156 6.08492187 -0.08570313 6.93359375 -0.09765625 C9 0 9 0 10 1 C13.33293484 1.44815734 16.66467075 1.82016634 20.00976562 2.16210938 C23.71093304 2.57861769 26.81166933 2.99997105 30 5 C19.63282798 4.63994253 10.0421956 3.77688539 0 1 C0 0.67 0 0.34 0 0 Z " fill="#EFC0BC" transform="translate(193,482)"/>
<path d="M0 0 C-3.81515952 1.27171984 -5.26067364 0.27137096 -9 -1 C-11.86524402 -1.19535755 -13.43292258 -1.28353871 -16 0 C-18.55157655 0.0716735 -21.07472971 0.09308442 -23.625 0.0625 C-24.33140625 0.05798828 -25.0378125 0.05347656 -25.765625 0.04882812 C-27.51045275 0.03703875 -29.255237 0.01910324 -31 0 C-24.47070842 -6.52929158 -7.50425825 -3.83196166 0 0 Z " fill="#D89EA8" transform="translate(264,290)"/>
<path d="M0 0 C2.625 0.375 2.625 0.375 5 1 C5.04254356 2.99954746 5.04080783 5.00041636 5 7 C4 8 4 8 1.4375 8.0625 C0.633125 8.041875 -0.17125 8.02125 -1 8 C-1.625 5.125 -1.625 5.125 -2 2 C-1.34 1.34 -0.68 0.68 0 0 Z " fill="#E6E9EB" transform="translate(206,134)"/>
<path d="M0 0 C3.53571429 0.53571429 3.53571429 0.53571429 5 2 C5.125 4.5 5.125 4.5 5 7 C4 8 4 8 1.5 8.125 C-1 8 -1 8 -2 7 C-2.1875 4.5625 -2.1875 4.5625 -2 2 C-1.34 1.34 -0.68 0.68 0 0 Z " fill="#E9EBEE" transform="translate(310,382)"/>
<path d="M0 0 C3.53571429 0.53571429 3.53571429 0.53571429 5 2 C5.125 4.5 5.125 4.5 5 7 C4 8 4 8 1.5 8.125 C-1 8 -1 8 -2 7 C-2.1875 4.5625 -2.1875 4.5625 -2 2 C-1.34 1.34 -0.68 0.68 0 0 Z " fill="#ECEFF1" transform="translate(229,342)"/>
<path d="M0 0 C3.53571429 0.53571429 3.53571429 0.53571429 5 2 C5.125 4.5 5.125 4.5 5 7 C4 8 4 8 1.5 8.125 C-1 8 -1 8 -2 7 C-2.1875 4.5625 -2.1875 4.5625 -2 2 C-1.34 1.34 -0.68 0.68 0 0 Z " fill="#ECEEF0" transform="translate(181,337)"/>
<path d="M0 0 C1.67542976 0.28604898 3.34385343 0.61781233 5 1 C5.625 3.375 5.625 3.375 6 6 C5.34 6.66 4.68 7.32 4 8 C1.375 7.625 1.375 7.625 -1 7 C-1.04254356 5.00045254 -1.04080783 2.99958364 -1 1 C-0.67 0.67 -0.34 0.34 0 0 Z " fill="#ECEEF1" transform="translate(180,172)"/>
<path d="M0 0 C0.79921875 0.01804687 1.5984375 0.03609375 2.421875 0.0546875 C3.02515625 0.07789063 3.6284375 0.10109375 4.25 0.125 C1.25 2.125 1.25 2.125 -1.4375 1.75 C-2.200625 1.54375 -2.96375 1.3375 -3.75 1.125 C-3.9975 1.7025 -4.245 2.28 -4.5 2.875 C-5.75 5.125 -5.75 5.125 -7.8125 6.9375 C-10.40259178 9.86179717 -10.45614003 12.30482042 -10.75 16.125 C-11.08 16.125 -11.41 16.125 -11.75 16.125 C-12.32563851 6.33914538 -12.32563851 6.33914538 -8.75 2.125 C-5.73448212 0.25979821 -3.51918691 -0.1035055 0 0 Z " fill="#65718B" transform="translate(311.75,374.875)"/>
<path d="M0 0 C2.625 0.375 2.625 0.375 5 1 C5.38218767 2.65614657 5.71395102 4.32457024 6 6 C5 7 5 7 1.9375 7.0625 C0.968125 7.041875 -0.00125 7.02125 -1 7 C-1.625 4.625 -1.625 4.625 -2 2 C-1.34 1.34 -0.68 0.68 0 0 Z " fill="#EAEDEE" transform="translate(304,324)"/>
<path d="M0 0 C3.71599191 -0.20086443 4.77208445 -0.1519437 8 2 C10.1270431 2.27441372 10.1270431 2.27441372 12.44921875 2.1953125 C13.29677734 2.18886719 14.14433594 2.18242187 15.01757812 2.17578125 C15.89865234 2.15902344 16.77972656 2.14226562 17.6875 2.125 C18.58017578 2.11597656 19.47285156 2.10695313 20.39257812 2.09765625 C22.59532314 2.07409748 24.79752588 2.04120329 27 2 C23.77995763 5.22004237 20.29872487 5.18997701 15.875 5.3125 C9.9357966 5.28851937 5.29193644 3.57135307 0 1 C0 0.67 0 0.34 0 0 Z " fill="#EEC2C0" transform="translate(153,280)"/>
<path d="M0 0 C0.625 2.375 0.625 2.375 1 5 C0.34 5.66 -0.32 6.32 -1 7 C-3.625 6.625 -3.625 6.625 -6 6 C-6 4.02 -6 2.04 -6 0 C-3.50907189 -1.24546405 -2.58919267 -0.7767578 0 0 Z " fill="#EEF1F3" transform="translate(234,174)"/>
<path d="M0 0 C2.8378891 2.8378891 3.47722074 6.2367067 4.5625 10 C4.78574951 10.76368896 5.00899902 11.52737793 5.23901367 12.31420898 C6.81418389 17.89074828 7.7236382 23.19640228 8 29 C7.34 28.67 6.68 28.34 6 28 C5.48628282 25.94513127 4.98890196 23.88493036 4.5703125 21.80859375 C3.92414153 18.62642304 3.18322139 15.47276589 2.4375 12.3125 C1.47364967 8.22237865 0.65352579 4.15144478 0 0 Z " fill="#EDC1BB" transform="translate(402,71)"/>
<path d="M0 0 C-3.41223111 2.27482074 -6.93704068 3.63264025 -10.75 5.0625 C-11.4409375 5.33126953 -12.131875 5.60003906 -12.84375 5.87695312 C-17.24925888 7.53729999 -21.31654967 8.50345618 -26 9 C-25 7 -25 7 -22.26953125 6.03515625 C-21.12871094 5.71417969 -19.98789062 5.39320313 -18.8125 5.0625 C-15.25513853 4.05830768 -12.09219508 3.0463776 -8.78515625 1.3828125 C-5.61773972 -0.18978981 -3.48970045 -0.24926432 0 0 Z " fill="#F1C8C2" transform="translate(323,472)"/>
<path d="M0 0 C2.5 0.125 2.5 0.125 3.5 1.125 C3.625 3.625 3.625 3.625 3.5 6.125 C2.5 7.125 2.5 7.125 0 7.25 C-2.5 7.125 -2.5 7.125 -3.5 6.125 C-3.625 3.625 -3.625 3.625 -3.5 1.125 C-2.5 0.125 -2.5 0.125 0 0 Z " fill="#F2F5F5" transform="translate(333.5,355.875)"/>
<path d="M0 0 C0.33 1.32 0.66 2.64 1 4 C0.443125 3.649375 -0.11375 3.29875 -0.6875 2.9375 C-3.7734607 1.68643485 -4.89557012 1.74344505 -8 3 C-9.62867219 4.72125821 -11.0635501 6.50141953 -12.47265625 8.40625 C-14.26016534 10.27147688 -15.48358404 10.6103614 -18 11 C-18 10.34 -18 9.68 -18 9 C-17.34 9 -16.68 9 -16 9 C-16 8.34 -16 7.68 -16 7 C-15.34 7 -14.68 7 -14 7 C-13.67 6.01 -13.34 5.02 -13 4 C-8.78684833 -0.4684942 -5.80703235 -0.39369711 0 0 Z " fill="#EDBCB8" transform="translate(442,130)"/>
<path d="M0 0 C0.734375 1.64453125 0.734375 1.64453125 1 4 C-0.546875 6.76171875 -0.546875 6.76171875 -2.75 9.6875 C-3.46671875 10.66074219 -4.1834375 11.63398438 -4.921875 12.63671875 C-7 15 -7 15 -10 16 C-8.55797524 11.84848662 -6.4989562 8.70021555 -3.875 5.1875 C-3.15054687 4.21167969 -2.42609375 3.23585938 -1.6796875 2.23046875 C-0.84824219 1.12638672 -0.84824219 1.12638672 0 0 Z " fill="#F0BFB7" transform="translate(404,371)"/>
<path d="M0 0 C3.0625 0.5 3.0625 0.5 5 1 C5 1.33 5 1.66 5 2 C4.24074219 2.06058594 3.48148437 2.12117187 2.69921875 2.18359375 C1.70535156 2.26738281 0.71148437 2.35117188 -0.3125 2.4375 C-1.79169922 2.55931641 -1.79169922 2.55931641 -3.30078125 2.68359375 C-6.09375599 2.91812559 -6.09375599 2.91812559 -9 4 C-9.80212628 5.87387216 -9.80212628 5.87387216 -10.1875 8.0625 C-10.34605469 8.79597656 -10.50460937 9.52945313 -10.66796875 10.28515625 C-10.83232422 11.13400391 -10.83232422 11.13400391 -11 12 C-11.33 12 -11.66 12 -12 12 C-12.35294118 4.94117647 -12.35294118 4.94117647 -11.0625 1.5 C-7.66810082 -0.96865395 -4.05052055 -0.37596776 0 0 Z " fill="#7B869C" transform="translate(341,178)"/>
<path d="M0 0 C8.60308032 0.44953032 16.65932321 1.86101998 25 4 C21.00950609 5.46145361 17.16411273 4.73712358 13.0625 4.1875 C12.35931641 4.10435547 11.65613281 4.02121094 10.93164062 3.93554688 C7.0103776 3.43206699 3.59046995 2.66524731 0 1 C0 0.67 0 0.34 0 0 Z " fill="#EFC1BD" transform="translate(268,33)"/>
<path d="M0 0 C0.66 0.33 1.32 0.66 2 1 C0.68 3.31 -0.64 5.62 -2 8 C-2.66 8 -3.32 8 -4 8 C-4.33 10.97 -4.66 13.94 -5 17 C-5.99 17.33 -6.98 17.66 -8 18 C-4.93023256 4.93023256 -4.93023256 4.93023256 0 0 Z " fill="#F0C3BE" transform="translate(429,323)"/>
<path d="M0 0 C0.66 0.33 1.32 0.66 2 1 C1.95359375 1.83144531 1.9071875 2.66289062 1.859375 3.51953125 C1.82328125 4.60621094 1.7871875 5.69289062 1.75 6.8125 C1.70359375 7.89144531 1.6571875 8.97039062 1.609375 10.08203125 C1.70283547 13.12076818 1.70283547 13.12076818 4.015625 14.88671875 C4.67046875 15.25410156 5.3253125 15.62148437 6 16 C5.67 16.66 5.34 17.32 5 18 C4.34 17.34 3.68 16.68 3 16 C0.93125966 15.3574765 0.93125966 15.3574765 -1 15 C-1.02693575 12.87506859 -1.04636628 10.75004088 -1.0625 8.625 C-1.07410156 7.44164062 -1.08570313 6.25828125 -1.09765625 5.0390625 C-1 2 -1 2 0 0 Z " fill="#778197" transform="translate(235,153)"/>
<path d="M0 0 C3 0 3 0 4.71875 1.6796875 C5.3065625 2.40414062 5.894375 3.12859375 6.5 3.875 C10.29536385 8.51932682 12.99501435 10.19933525 19 11 C16 13 16 13 12.75 12.625 C8.4503817 11.26482351 6.20413765 8.22400027 3.48046875 4.77734375 C2.10630575 2.88606249 2.10630575 2.88606249 0 2 C0 1.34 0 0.68 0 0 Z " fill="#EBC0BC" transform="translate(443,155)"/>
<path d="M0 0 C0.66 0 1.32 0 2 0 C0.91103333 5.75762166 -0.29336293 11.39247819 -2 17 C-2.99 17 -3.98 17 -5 17 C-5.33 15.68 -5.66 14.36 -6 13 C-5.01 13.33 -4.02 13.66 -3 14 C-3.061875 12.576875 -3.061875 12.576875 -3.125 11.125 C-3 8 -3 8 -1 6 C-0.60235737 4.01178687 -0.26224651 2.01055661 0 0 Z " fill="#EFC2BE" transform="translate(45,334)"/>
<path d="M0 0 C-2.85478326 1.90318884 -4.41941308 2.4619099 -7.6875 3.125 C-8.49574219 3.29257813 -9.30398438 3.46015625 -10.13671875 3.6328125 C-10.75160156 3.75398438 -11.36648438 3.87515625 -12 4 C-12 5.98 -12 7.96 -12 10 C-12.99 9.34 -13.98 8.68 -15 8 C-15.1875 5.375 -15.1875 5.375 -15 3 C-4.75899281 -1.52967626 -4.75899281 -1.52967626 0 0 Z " fill="#ECBEBA" transform="translate(493,98)"/>
<path d="M0 0 C0.66 1.32 1.32 2.64 2 4 C1.09650406 5.01191545 0.17659153 6.00918926 -0.75 7 C-1.51570312 7.8353125 -1.51570312 7.8353125 -2.296875 8.6875 C-4 10 -4 10 -8 10 C-6.76044505 6.28133515 -4.81445146 4.67716114 -2 2 C-1.34 1.34 -0.68 0.68 0 0 Z " fill="#556281" transform="translate(243,133)"/>
<path d="M0 0 C0.66 0.66 1.32 1.32 2 2 C1.00419922 2.02126953 1.00419922 2.02126953 -0.01171875 2.04296875 C-6.17255195 2.27049181 -6.17255195 2.27049181 -11.125 5.5625 C-11.74375 6.366875 -12.3625 7.17125 -13 8 C-13.33 7.34 -13.66 6.68 -14 6 C-9.05733167 0.92726146 -7.18736869 -0.38503761 0 0 Z " fill="#7E879D" transform="translate(186,329)"/>
<path d="M0 0 C9.02984567 -0.63690134 15.28514567 0.1237941 23 5 C22.67 5.66 22.34 6.32 22 7 C21.12601562 6.47599609 21.12601562 6.47599609 20.234375 5.94140625 C13.4776016 2.19118453 7.68718475 1.14529043 0 1 C0 0.67 0 0.34 0 0 Z " fill="#F3CAC8" transform="translate(314,246)"/>
<path d="M0 0 C-0.99 0.495 -0.99 0.495 -2 1 C-2 1.66 -2 2.32 -2 3 C-13.385 2.505 -13.385 2.505 -25 2 C-25 1.67 -25 1.34 -25 1 C-21.95843125 0.83135856 -18.91676547 0.66502247 -15.875 0.5 C-15.0190625 0.45230469 -14.163125 0.40460938 -13.28125 0.35546875 C-8.84778214 0.11674356 -4.44201651 -0.05825595 0 0 Z " fill="#737C91" transform="translate(251,265)"/>
<path d="M0 0 C0 0.66 0 1.32 0 2 C-4.27065717 4.18740977 -8.57933544 6.14332089 -13 8 C-11.62087597 4.59863711 -10.37388141 3.30394435 -7.0625 1.75 C-6.37285156 1.41484375 -5.68320312 1.0796875 -4.97265625 0.734375 C-3 0 -3 0 0 0 Z " fill="#F0C2BF" transform="translate(314,247)"/>
<path d="M0 0 C4.55015893 1.51671964 6.50057264 5.16891053 9 9 C5.125 7.25 5.125 7.25 4 5 C2.68 5 1.36 5 0 5 C-0.33 5.66 -0.66 6.32 -1 7 C-1.66 6.67 -2.32 6.34 -3 6 C-2.01 4.02 -1.02 2.04 0 0 Z " fill="#EFC7C2" transform="translate(91,389)"/>
<path d="M0 0 C-0.54299687 3.80097811 -2.07276772 5.57457897 -5 8 C-7.25 8.75 -7.25 8.75 -9 9 C-7.45665977 5.21180126 -4.44676575 0 0 0 Z " fill="#5D6884" transform="translate(275,384)"/>
<path d="M0 0 C0.33 0.99 0.66 1.98 1 3 C0.360625 3.2475 -0.27875 3.495 -0.9375 3.75 C-3.19060573 4.80148727 -3.19060573 4.80148727 -3.625 7.0625 C-3.74875 7.701875 -3.8725 8.34125 -4 9 C-4.99 9.495 -4.99 9.495 -6 10 C-6.33 10.99 -6.66 11.98 -7 13 C-7.66 13 -8.32 13 -9 13 C-7.125 8.25 -7.125 8.25 -6 6 C-5.34 6 -4.68 6 -4 6 C-3.566875 4.7934375 -3.566875 4.7934375 -3.125 3.5625 C-2 1 -2 1 0 0 Z " fill="#667189" transform="translate(69,314)"/>
<path d="M0 0 C0.33 0.66 0.66 1.32 1 2 C-0.07518118 4.44332726 -1.19808566 6.76754523 -2.4375 9.125 C-2.77587891 9.78371094 -3.11425781 10.44242188 -3.46289062 11.12109375 C-4.30149926 12.75106547 -5.14984811 14.37601909 -6 16 C-6.33 16 -6.66 16 -7 16 C-7 14.35 -7 12.7 -7 11 C-6.34 11 -5.68 11 -5 11 C-4.9175 10.113125 -4.835 9.22625 -4.75 8.3125 C-3.9065914 4.58744536 -2.54447236 2.79071162 0 0 Z " fill="#EDBFBD" transform="translate(73,160)"/>
<path d="M0 0 C1.49828872 3.88235819 0.43110582 6.43449288 -0.9375 10.25 C-1.31777344 11.32765625 -1.69804688 12.4053125 -2.08984375 13.515625 C-2.39019531 14.33546875 -2.69054688 15.1553125 -3 16 C-3.33 16 -3.66 16 -4 16 C-4.4010138 9.45010793 -2.86887178 5.73774356 0 0 Z " fill="#F0C0BF" transform="translate(59,191)"/>
<path d="M0 0 C5.56890517 0.47986031 10.67067568 1.29915181 16 3 C16 3.33 16 3.66 16 4 C10.06997733 4.37851209 5.52760359 3.10575375 0 1 C0 0.67 0 0.34 0 0 Z " fill="#EEBDB9" transform="translate(293,38)"/>
<path d="M0 0 C-1.89385437 0.50744423 -3.79018666 1.00564574 -5.6875 1.5 C-6.74324219 1.7784375 -7.79898437 2.056875 -8.88671875 2.34375 C-11.71142672 2.9391715 -14.12836708 3.12786492 -17 3 C-16.67 2.34 -16.34 1.68 -16 1 C-13.41796875 0.33203125 -13.41796875 0.33203125 -10.1875 -0.1875 C-8.60001953 -0.45626953 -8.60001953 -0.45626953 -6.98046875 -0.73046875 C-4.26673085 -0.97587886 -2.54696188 -0.86954389 0 0 Z " fill="#F0C5C0" transform="translate(295,482)"/>
<path d="M0 0 C0.33 0.99 0.66 1.98 1 3 C-1.64 5.31 -4.28 7.62 -7 10 C-7.33 9.34 -7.66 8.68 -8 8 C-7.04578192 6.85073734 -6.08647955 5.70569459 -5.125 4.5625 C-4.59132812 3.92441406 -4.05765625 3.28632813 -3.5078125 2.62890625 C-2 1 -2 1 0 0 Z " fill="#4E5976" transform="translate(254,375)"/>
<path d="M0 0 C2 2 2 2 2.3125 5.1875 C1.95717884 9.52241809 0.89596629 12.12906883 -1 16 C-1.33 16 -1.66 16 -2 16 C-2.042721 14.33388095 -2.04063832 12.66617115 -2 11 C-1.67 10.67 -1.34 10.34 -1 10 C-0.76712992 8.31816052 -0.58735834 6.6287584 -0.4375 4.9375 C-0.35371094 4.01839844 -0.26992188 3.09929687 -0.18359375 2.15234375 C-0.12300781 1.44207031 -0.06242187 0.73179687 0 0 Z " fill="#F4CAC5" transform="translate(449,328)"/>
<path d="M0 0 C-0.33 3.3 -0.66 6.6 -1 10 C-1.99 9.67 -2.98 9.34 -4 9 C-4.368 3.48 -4.368 3.48 -2.5625 1.125 C-1 0 -1 0 0 0 Z " fill="#495674" transform="translate(98,224)"/>
<path d="M0 0 C0.33 1.32 0.66 2.64 1 4 C-1.4375 6.75 -1.4375 6.75 -4 9 C-4.99 8.67 -5.98 8.34 -7 8 C-4.69 5.36 -2.38 2.72 0 0 Z " fill="#EFBEBA" transform="translate(416,148)"/>
<path d="M0 0 C2.9375 1.5 2.9375 1.5 5 3 C2.30450572 4.34774714 0.48451765 3.91559777 -2.5 3.625 C-3.4796875 3.53476563 -4.459375 3.44453125 -5.46875 3.3515625 C-8 3 -8 3 -10 2 C-6.27420911 -0.48386059 -4.41288598 -0.3804212 0 0 Z " fill="#868EA4" transform="translate(159,144)"/>
<path d="M0 0 C0.33 0.66 0.66 1.32 1 2 C0.29296875 3.98828125 0.29296875 3.98828125 -0.8125 6.3125 C-1.18503906 7.11171875 -1.55757813 7.9109375 -1.94140625 8.734375 C-2.29074219 9.48203125 -2.64007813 10.2296875 -3 11 C-3.67834587 12.66194738 -4.35199575 14.32598903 -5 16 C-5.33 16 -5.66 16 -6 16 C-6.28948041 11.87304853 -5.48503879 9.38811872 -3.5625 5.75 C-3.11003906 4.87859375 -2.65757812 4.0071875 -2.19140625 3.109375 C-1 1 -1 1 0 0 Z " fill="#F7B6B2" transform="translate(434,325)"/>
<path d="M0 0 C0.66 0 1.32 0 2 0 C0.25 3.875 0.25 3.875 -2 5 C-5.4375 5.25 -5.4375 5.25 -9 5 C-9.99 4.01 -10.98 3.02 -12 2 C-8.37 2.33 -4.74 2.66 -1 3 C-0.67 2.01 -0.34 1.02 0 0 Z " fill="#68738A" transform="translate(110,235)"/>
<path d="M0 0 C0.33 0 0.66 0 1 0 C1 7.26 1 14.52 1 22 C0.67 22 0.34 22 0 22 C-0.06058594 20.94039062 -0.12117188 19.88078125 -0.18359375 18.7890625 C-0.26800127 17.40102779 -0.35264917 16.01300768 -0.4375 14.625 C-0.47681641 13.92632812 -0.51613281 13.22765625 -0.55664062 12.5078125 C-0.74280134 8.62639508 -0.74280134 8.62639508 -2 5 C-1.0625 2.375 -1.0625 2.375 0 0 Z " fill="#D7DCE5" transform="translate(99,200)"/>
<path d="M0 0 C1.98244892 0.78341119 3.96088859 1.57697486 5.9375 2.375 C7.03964844 2.81585938 8.14179688 3.25671875 9.27734375 3.7109375 C12 5 12 5 13 7 C4.032 5.024 4.032 5.024 0 2 C0 1.34 0 0.68 0 0 Z " fill="#EFC2BE" transform="translate(331,49)"/>
<path d="M0 0 C1.98 0 3.96 0 6 0 C6 2.64 6 5.28 6 8 C5.67 8 5.34 8 5 8 C4.67 6.02 4.34 4.04 4 2 C2.68 3.32 1.36 4.64 0 6 C0 4.02 0 2.04 0 0 Z " fill="#223257" transform="translate(182,396)"/>
<path d="M0 0 C0 3.66184524 -0.919642 5.02806 -3 8 C-5.1875 9.8125 -5.1875 9.8125 -7 11 C-7.66 10.67 -8.32 10.34 -9 10 C-6.03 6.7 -3.06 3.4 0 0 Z " fill="#EFC3BE" transform="translate(393,387)"/>
<path d="M0 0 C0.33 0.99 0.66 1.98 1 3 C-3.455 6.96 -3.455 6.96 -8 11 C-8.66 10.67 -9.32 10.34 -10 10 C-8.90033225 8.70450101 -7.79508199 7.41373929 -6.6875 6.125 C-6.07261719 5.40570313 -5.45773437 4.68640625 -4.82421875 3.9453125 C-3 2 -3 2 0 0 Z " fill="#ECBCB7" transform="translate(478,124)"/>
<path d="M0 0 C1.32 0 2.64 0 4 0 C4.125 2.375 4.125 2.375 4 5 C1.4345406 7.5654594 -0.47686668 7.54046087 -4 8 C-2 6 0 4 2 2 C1.34 1.34 0.68 0.68 0 0 Z " fill="#F2C1BA" transform="translate(363,99)"/>
<path d="M0 0 C3.5 0.375 3.5 0.375 6.5 3.375 C2.21 3.375 -2.08 3.375 -6.5 3.375 C-3.5 0.375 -3.5 0.375 0 0 Z " fill="#788297" transform="translate(230.5,333.625)"/>
<path d="M0 0 C0.66 1.32 1.32 2.64 2 4 C0.6875 6 0.6875 6 -1 8 C-1.99 8 -2.98 8 -4 8 C-4.33 8.66 -4.66 9.32 -5 10 C-5.66 9.34 -6.32 8.68 -7 8 C-6.38125 7.9175 -5.7625 7.835 -5.125 7.75 C-2.85214021 7.19418495 -2.85214021 7.19418495 -1.8125 5.125 C-1.16535941 3.43247845 -0.57301136 1.71903407 0 0 Z " fill="#5E6B86" transform="translate(120,243)"/>
<path d="M0 0 C1.46015291 0.28241641 2.91809793 0.57626614 4.375 0.875 C5.18710937 1.03742188 5.99921875 1.19984375 6.8359375 1.3671875 C9 2 9 2 11 4 C6.56440517 5.37656391 3.99957607 4.06874624 0 2 C0 1.34 0 0.68 0 0 Z " fill="#5F6984" transform="translate(295,97)"/>
<path d="M0 0 C0.33 0 0.66 0 1 0 C1.3690205 10.55808656 1.3690205 10.55808656 -1 15 C-1.33 15 -1.66 15 -2 15 C-1.03644647 4.44191344 -1.03644647 4.44191344 0 0 Z " fill="#F0C5C1" transform="translate(27,211)"/>
<path d="M0 0 C0 3.80345877 -1.13786331 4.77701015 -3.5 7.6875 C-4.47453125 8.89986328 -4.47453125 8.89986328 -5.46875 10.13671875 C-5.9740625 10.75160156 -6.479375 11.36648437 -7 12 C-7.33 11.01 -7.66 10.02 -8 9 C-5.36 6.03 -2.72 3.06 0 0 Z " fill="#EEC3C1" transform="translate(92,132)"/>
<path d="M0 0 C-3.07692746 2.6815279 -5.19734663 3.42087807 -9.25 3.6875 C-10.14203125 3.75324219 -11.0340625 3.81898438 -11.953125 3.88671875 C-12.62859375 3.92410156 -13.3040625 3.96148437 -14 4 C-11.37350692 2.24900461 -9.38191413 1.30690675 -6.4375 0.3125 C-5.65246094 0.04050781 -4.86742187 -0.23148437 -4.05859375 -0.51171875 C-2 -1 -2 -1 0 0 Z " fill="#F1C7C2" transform="translate(312,450)"/>
<path d="M0 0 C0.66 0.33 1.32 0.66 2 1 C0.6875 2.5 0.6875 2.5 -1 4 C-1.99 4 -2.98 4 -4 4 C-4.33 4.99 -4.66 5.98 -5 7 C-6.32 6.67 -7.64 6.34 -9 6 C-6.03 4.02 -3.06 2.04 0 0 Z " fill="#F0C5C0" transform="translate(345,430)"/>
<path d="M0 0 C1.41687119 4.25061356 0.19320039 6.71851625 -1 11 C-1.66 11 -2.32 11 -3 11 C-2.88590407 9.54077307 -2.75834456 8.08259402 -2.625 6.625 C-2.55539063 5.81289063 -2.48578125 5.00078125 -2.4140625 4.1640625 C-2 2 -2 2 0 0 Z " fill="#ECBDB6" transform="translate(87,396)"/>
<path d="M0 0 C0.66 0 1.32 0 2 0 C2.33 0.99 2.66 1.98 3 3 C2.01 3.33 1.02 3.66 0 4 C0.33 7.3 0.66 10.6 1 14 C0.34 13.67 -0.32 13.34 -1 13 C-1.02696365 11.20841511 -1.04637917 9.41671527 -1.0625 7.625 C-1.07410156 6.62726563 -1.08570313 5.62953125 -1.09765625 4.6015625 C-1 2 -1 2 0 0 Z " fill="#778198" transform="translate(323,352)"/>
<path d="M0 0 C0 0.99 0 1.98 0 3 C-1.4609375 4.38671875 -1.4609375 4.38671875 -3.375 5.6875 C-4.00148438 6.12449219 -4.62796875 6.56148438 -5.2734375 7.01171875 C-7 8 -7 8 -9 8 C-9 7.34 -9 6.68 -9 6 C-8.01 6 -7.02 6 -6 6 C-6 5.34 -6 4.68 -6 4 C-4.03852126 2.61061923 -2.03833424 1.2739589 0 0 Z " fill="#EDC1BE" transform="translate(337,263)"/>
<path d="M0 0 C-1.75 1.5625 -1.75 1.5625 -4 3 C-6.25 2.6875 -6.25 2.6875 -8 2 C-8.33 2.66 -8.66 3.32 -9 4 C-11.97 3.505 -11.97 3.505 -15 3 C-15 2.67 -15 2.34 -15 2 C-13.43883181 1.66048381 -11.87598662 1.32867456 -10.3125 1 C-9.44238281 0.814375 -8.57226562 0.62875 -7.67578125 0.4375 C-5.06287036 0.01027953 -2.64186962 -0.07616201 0 0 Z " fill="#7A8397" transform="translate(223,89)"/>
<path d="M0 0 C-4.27320453 2.84880302 -6.78168857 4.28990619 -12 4 C-11 2 -11 2 -8.8125 0.875 C-5.73230669 -0.08328236 -3.20690052 -0.14915816 0 0 Z " fill="#EEBEB8" transform="translate(323,472)"/>
<path d="M0 0 C4.08963819 2.28538605 7.46362104 4.95706926 11 8 C10.01 8.33 9.02 8.66 8 9 C5.95703125 7.63671875 5.95703125 7.63671875 3.8125 5.6875 C2.73935547 4.73423828 2.73935547 4.73423828 1.64453125 3.76171875 C0 2 0 2 0 0 Z " fill="#EFC6C0" transform="translate(114,412)"/>
<path d="M0 0 C0.66 0.33 1.32 0.66 2 1 C0.19761121 2.80238879 -1.54887809 4.16402532 -3.625 5.625 C-4.25664062 6.07101562 -4.88828125 6.51703125 -5.5390625 6.9765625 C-6.02117187 7.31429688 -6.50328125 7.65203125 -7 8 C-7 7.01 -7 6.02 -7 5 C-5.46875 3.61328125 -5.46875 3.61328125 -3.5 2.3125 C-2.8503125 1.87550781 -2.200625 1.43851562 -1.53125 0.98828125 C-1.0259375 0.66214844 -0.520625 0.33601563 0 0 Z " fill="#D6A3AB" transform="translate(231,290)"/>
<path d="M0 0 C1.50934217 3.01868434 1.17510672 5.67297229 1 9 C0.34 9.99 -0.32 10.98 -1 12 C-2.50934217 8.98131566 -2.17510672 6.32702771 -2 3 C-1.34 2.01 -0.68 1.02 0 0 Z " fill="#757F95" transform="translate(96,284)"/>
<path d="M0 0 C-1.04874998 2.62187494 -1.64931313 3.79371361 -4.125 5.25 C-4.74375 5.4975 -5.3625 5.745 -6 6 C-6 3 -6 3 -4.6875 1.3125 C-3 0 -3 0 0 0 Z " fill="#566381" transform="translate(265,145)"/>
<path d="M0 0 C4.31392226 0.4793247 6.16569547 1.7457985 9 5 C4.98525763 5 3.18024863 3.33218233 0 1 C0 0.67 0 0.34 0 0 Z " fill="#EFC1BB" transform="translate(120,449)"/>
<path d="M0 0 C-0.639375 0.103125 -1.27875 0.20625 -1.9375 0.3125 C-2.618125 0.539375 -3.29875 0.76625 -4 1 C-4.33 1.99 -4.66 2.98 -5 4 C-7.97 3.505 -7.97 3.505 -11 3 C-10.67 2.01 -10.34 1.02 -10 0 C-10 0.66 -10 1.32 -10 2 C-9.44570313 1.77183594 -8.89140625 1.54367187 -8.3203125 1.30859375 C-7.59585937 1.02113281 -6.87140625 0.73367188 -6.125 0.4375 C-5.40570313 0.14746094 -4.68640625 -0.14257812 -3.9453125 -0.44140625 C-2 -1 -2 -1 0 0 Z " fill="#6D7791" transform="translate(419,292)"/>
<path d="M0 0 C0.65234375 1.765625 0.65234375 1.765625 1 4 C0.00390625 5.921875 0.00390625 5.921875 -1.4375 7.75 C-2.14712891 8.67039063 -2.14712891 8.67039063 -2.87109375 9.609375 C-3.24363281 10.06828125 -3.61617187 10.5271875 -4 11 C-4 7.80389448 -3.45328458 6.58282374 -2 3.8125 C-1.62875 3.09707031 -1.2575 2.38164062 -0.875 1.64453125 C-0.441875 0.83048828 -0.441875 0.83048828 0 0 Z " fill="#ECBEBA" transform="translate(50,150)"/>
<path d="M0 0 C1 2 1 2 0.44140625 3.9453125 C0.15136719 4.66460937 -0.13867188 5.38390625 -0.4375 6.125 C-0.72496094 6.84945313 -1.01242188 7.57390625 -1.30859375 8.3203125 C-1.53675781 8.87460937 -1.76492187 9.42890625 -2 10 C-2.66 10 -3.32 10 -4 10 C-3.43454163 6.04179141 -2.19097652 3.3340947 0 0 Z " fill="#717C95" transform="translate(72,342)"/>
<path d="M0 0 C1.98 0.99 3.96 1.98 6 3 C5.67 4.32 5.34 5.64 5 7 C3.29115995 5.37660195 1.62553283 3.70680947 0 2 C0 1.34 0 0.68 0 0 Z " fill="#EFB7B1" transform="translate(443,323)"/>
<path d="M0 0 C0.763125 0.20625 1.52625 0.4125 2.3125 0.625 C2.3125 1.285 2.3125 1.945 2.3125 2.625 C-0.29332371 3.55565133 -1.32948224 3.77417407 -3.9375 2.6875 C-4.515 2.336875 -5.0925 1.98625 -5.6875 1.625 C-2.6875 -0.375 -2.6875 -0.375 0 0 Z " fill="#29385E" transform="translate(306.6875,316.375)"/>
<path d="M0 0 C-4.44 2.96 -4.44 2.96 -7 4 C-7.99 3.67 -8.98 3.34 -10 3 C-6.68152292 -0.06320961 -4.44849969 -0.3033068 0 0 Z " fill="#ECBEB9" transform="translate(179,70)"/>
<path d="M0 0 C-3.00617269 3.00617269 -5.82381598 2.59585316 -10 3 C-6.84439813 -0.15560187 -4.30999015 -1.43666338 0 0 Z " fill="#F1C5C0" transform="translate(322,446)"/>
<path d="M0 0 C0.66 0.33 1.32 0.66 2 1 C1.67 1.66 1.34 2.32 1 3 C1.99 3.66 2.98 4.32 4 5 C2.35 5.66 0.7 6.32 -1 7 C-1.04254356 5.00045254 -1.04080783 2.99958364 -1 1 C-0.67 0.67 -0.34 0.34 0 0 Z " fill="#9CA6BA" transform="translate(316,396)"/>
<path d="M0 0 C0.9075 0.226875 1.815 0.45375 2.75 0.6875 C2.42 1.3475 2.09 2.0075 1.75 2.6875 C-1.22 2.6875 -4.19 2.6875 -7.25 2.6875 C-4.61280971 0.1517401 -3.74095095 -0.35970682 0 0 Z " fill="#1D2C52" transform="translate(234.25,185.3125)"/>
<path d="M0 0 C0.99 0.33 1.98 0.66 3 1 C3 1.66 3 2.32 3 3 C2.34 3 1.68 3 1 3 C0.67 2.01 0.34 1.02 0 0 Z " fill="#E7E8E1" transform="translate(544,398)"/>
<path d="" fill="#EBEBDF" transform="translate(0,0)"/>
<path d="M0 0 C2 1 2 1 2 1 Z " fill="#EAE9E5" transform="translate(541,394)"/>
<path d="" fill="#EAE9E4" transform="translate(0,0)"/>
<path d="" fill="#EBEDE0" transform="translate(0,0)"/>
<path d="" fill="#E9EAE4" transform="translate(0,0)"/>
<path d="" fill="#EAECDF" transform="translate(0,0)"/>
</svg>
